# Blender 5.2.0 LTS
# www.blender.org
o Asimov_Rocket_Launcher_Body
v -0.057940 0.292764 0.312258
v -0.057940 0.292764 -0.138788
v 0.057940 0.292764 -0.138788
v 0.057940 0.292764 0.312258
v -0.057940 0.255628 0.312258
v -0.057940 0.255628 -0.138788
v 0.057940 0.255628 -0.138788
v 0.057940 0.255628 0.312258
v -0.022048 -0.275001 0.082335
v -0.045135 -0.275001 0.057598
v -0.045135 -0.275001 -0.072042
v -0.022048 -0.275001 -0.096779
v 0.022048 -0.275001 -0.096779
v 0.045136 -0.275001 -0.072042
v 0.045136 -0.275001 0.057598
v 0.022048 -0.275001 0.082335
v -0.045135 0.022133 0.049677
v -0.022048 0.022133 0.074414
v -0.022048 0.022133 -0.093644
v -0.045135 0.022133 -0.068908
v 0.045136 0.022133 -0.068908
v 0.022048 0.022133 -0.093644
v 0.022048 0.022133 0.074414
v 0.045136 0.022133 0.049677
v -0.022048 -0.244077 0.082335
v -0.045135 -0.244077 0.057598
v -0.045135 -0.244077 -0.072042
v -0.022048 -0.244077 -0.096779
v 0.022048 -0.244077 -0.096779
v 0.045136 -0.244077 -0.072042
v 0.045136 -0.244077 0.057598
v 0.022048 -0.244077 0.082335
v 0.022048 -0.237469 0.072896
v 0.045136 -0.237469 0.048159
v 0.022048 -0.237469 -0.095163
v 0.045136 -0.237469 -0.070426
v -0.022048 -0.237469 -0.095163
v -0.045135 -0.237469 -0.070426
v -0.022048 -0.237469 0.072896
v -0.045135 -0.237469 0.048159
v 0.019647 -0.282454 -0.087025
v -0.019646 -0.282454 -0.087025
v -0.040220 -0.282454 0.050539
v -0.019646 -0.282454 0.072581
v 0.040220 -0.282454 -0.064983
v 0.019647 -0.282454 0.072581
v 0.040220 -0.282454 0.050539
v -0.040220 -0.282454 -0.064983
v -0.053620 0.255628 0.312258
v -0.053620 0.255628 -0.138788
v 0.053620 0.255628 -0.138788
v 0.053620 0.255628 0.312258
v -0.053620 0.231085 -0.138788
v 0.053620 0.231085 -0.138788
v -0.053620 0.255628 0.018244
v 0.053620 0.255628 0.018243
v -0.053620 0.210663 0.018244
v 0.053620 0.210663 0.018243
v -0.053620 0.255628 0.012589
v -0.053620 0.171222 0.012589
v 0.053620 0.255628 0.012589
v 0.053620 0.171222 0.012589
v -0.053620 0.255628 -0.102960
v -0.053620 0.171222 -0.102960
v 0.053620 0.255628 -0.102960
v 0.053620 0.171222 -0.102960
v 0.053620 0.255628 0.075287
v -0.053620 0.255628 0.075287
v 0.053620 0.210663 0.075287
v 0.053620 0.210663 0.312258
v -0.053620 0.210663 0.312258
v -0.053620 0.210663 0.075287
v 0.044591 0.558861 0.433840
v -0.044591 0.558861 0.433840
v -0.043497 0.555493 -0.414315
v -0.116742 0.506441 0.433840
v -0.113877 0.504360 -0.414315
v -0.144301 0.421623 0.433840
v -0.140759 0.421623 -0.414315
v -0.116742 0.336805 0.433840
v -0.113877 0.338887 -0.414315
v -0.044591 0.284385 0.433840
v -0.043497 0.287753 -0.414315
v 0.044591 0.284385 0.433840
v 0.043497 0.287753 -0.414315
v 0.116742 0.336805 0.433840
v 0.113877 0.338887 -0.414315
v 0.144301 0.421623 0.433840
v 0.047030 0.022615 0.057583
v 0.047030 0.022616 -0.082815
v -0.047030 0.022616 -0.082815
v -0.047030 0.022615 0.057583
v -0.047030 0.215971 -0.082815
v -0.047030 0.215970 0.057584
v 0.047030 0.215970 0.057584
v 0.047030 0.215971 -0.082815
v -0.037424 0.215970 0.057584
v 0.037425 0.215970 0.057584
v -0.037424 0.215971 -0.082815
v 0.037425 0.215971 -0.082815
v 0.037425 0.022616 -0.082815
v -0.037424 0.022616 -0.082815
v -0.037424 0.022615 0.057583
v 0.037425 0.022615 0.057583
v 0.037425 0.022621 0.077729
v -0.037424 0.022621 0.077729
v -0.037424 0.022621 -0.102960
v 0.037425 0.022621 -0.102960
v 0.037425 0.214519 -0.102960
v -0.037424 0.214519 -0.102960
v 0.037425 0.214519 0.077729
v -0.037424 0.214519 0.077729
v 0.140759 0.421623 -0.414315
v 0.116742 0.506441 0.433840
v 0.113877 0.504360 -0.414315
v 0.043497 0.555493 -0.414315
v -0.015467 0.201388 0.136341
v 0.015467 0.201388 0.136340
v 0.015467 0.201388 0.079679
v -0.015467 0.201388 0.079679
v 0.015467 0.054476 0.126514
v -0.015467 0.054476 0.126514
v 0.015467 0.054476 0.137932
v -0.015467 0.054476 0.137932
v -0.015467 0.101860 0.086509
v -0.015467 0.101860 0.130650
v 0.015467 0.101860 0.086509
v 0.015467 0.101860 0.130650
v 0.073100 0.474734 1.045059
v 0.090357 0.421623 1.045059
v 0.073100 0.368513 1.045059
v 0.027922 0.335689 1.045059
v -0.027922 0.335689 1.045059
v -0.073100 0.368513 1.045059
v -0.090357 0.421623 1.045059
v -0.073100 0.474734 1.045059
v 0.027922 0.507558 1.045059
v -0.027922 0.507558 1.045059
v -0.036492 0.533934 0.520099
v -0.095537 0.491035 0.520099
v -0.118091 0.421623 0.520099
v -0.095537 0.352211 0.520099
v -0.036492 0.309312 0.520099
v 0.036492 0.309312 0.520099
v 0.095537 0.352211 0.520099
v 0.118091 0.421623 0.520099
v 0.095537 0.491035 0.520099
v 0.036492 0.533934 0.520099
v -0.054314 0.102214 0.029853
v 0.054314 0.102214 0.029853
v 0.054314 0.096360 0.021795
v -0.054314 0.096360 0.021795
v 0.054314 0.086887 0.018717
v -0.054314 0.086887 0.018717
v -0.054314 0.102214 0.039813
v 0.054314 0.102214 0.039813
v -0.054314 0.077414 0.047871
v 0.054314 0.077414 0.047871
v 0.054314 0.086887 0.050949
v -0.054314 0.086887 0.050949
v -0.054314 0.071560 0.029853
v 0.054314 0.071560 0.029853
v 0.054314 0.071560 0.039813
v -0.054314 0.071560 0.039813
v 0.054314 0.077414 0.021795
v -0.054314 0.077414 0.021795
v 0.054314 0.096360 0.047871
v -0.054314 0.096360 0.047871
v -0.021359 0.195488 0.291933
v 0.021359 0.195488 0.291933
v 0.021359 0.195488 0.052292
v -0.021359 0.195488 0.052292
v 0.021359 0.024287 0.064886
v 0.021359 0.024287 0.247563
v -0.021359 0.024287 0.247563
v -0.021359 0.024287 0.064886
v 0.021359 0.078997 0.283186
v 0.021359 0.074352 0.047714
v -0.021359 0.074352 0.047714
v -0.021359 0.078997 0.283186
v 0.021359 0.210663 0.034293
v 0.021359 0.210663 0.312258
v -0.021359 0.210663 0.312258
v -0.021359 0.210663 0.034293
v 0.021359 0.009111 0.052091
v 0.021359 0.009111 0.254795
v -0.021359 0.009111 0.254795
v -0.021359 0.009111 0.052091
v 0.021359 0.071788 0.296877
v 0.021359 0.071788 0.032757
v -0.021359 0.071788 0.032757
v -0.021359 0.071788 0.296877
v 0.079069 0.479070 0.782477
v 0.097734 0.421623 0.782477
v 0.079069 0.364176 0.782477
v 0.030202 0.328672 0.782477
v -0.030201 0.328672 0.782477
v -0.079069 0.364176 0.782477
v -0.097734 0.421623 0.782477
v -0.079069 0.479070 0.782477
v 0.030202 0.514574 0.782477
v -0.030201 0.514574 0.782477
v 0.030202 0.514574 0.809727
v 0.079069 0.479070 0.809727
v 0.097734 0.421623 0.809727
v 0.079069 0.364176 0.809727
v 0.030202 0.328672 0.809727
v -0.030201 0.328672 0.809727
v -0.079069 0.364176 0.809727
v -0.097734 0.421623 0.809727
v -0.079069 0.479070 0.809727
v -0.030201 0.514574 0.809727
v -0.050741 0.577788 -0.479780
v 0.050741 0.577787 -0.479780
v -0.132841 0.518138 -0.479780
v -0.164201 0.421623 -0.479780
v -0.132841 0.325109 -0.479780
v -0.050741 0.265459 -0.479780
v 0.050741 0.265459 -0.479780
v 0.132841 0.325109 -0.479780
v 0.164201 0.421623 -0.479780
v 0.132841 0.518138 -0.479780
v -0.050741 0.577788 -3.127996
v 0.050741 0.577788 -3.127996
v -0.132841 0.518138 -3.127996
v -0.164201 0.421624 -3.127995
v -0.132841 0.325109 -3.127995
v -0.050741 0.265460 -3.127996
v 0.050741 0.265460 -3.127996
v 0.132841 0.325109 -3.127995
v 0.164201 0.421624 -3.127995
v 0.132841 0.518138 -3.127996
v -0.049513 0.574010 -0.950358
v 0.049514 0.574010 -0.950358
v -0.129628 0.515804 -0.950358
v -0.160229 0.421623 -0.950358
v -0.129628 0.327443 -0.950358
v -0.049513 0.269236 -0.950358
v 0.049514 0.269236 -0.950358
v 0.129628 0.327443 -0.950358
v 0.160229 0.421623 -0.950358
v 0.129628 0.515804 -0.950358
v -0.063065 0.615716 -2.087557
v 0.063065 0.615716 -2.087557
v -0.165105 0.541579 -2.087557
v -0.204081 0.421623 -2.087557
v -0.165105 0.301667 -2.087557
v -0.063065 0.227530 -2.087557
v 0.063065 0.227530 -2.087557
v 0.165105 0.301667 -2.087557
v 0.204081 0.421623 -2.087557
v 0.165105 0.541579 -2.087557
v -0.054195 0.588419 -2.225580
v 0.054195 0.588418 -2.225580
v -0.141884 0.524708 -2.225580
v -0.175379 0.421623 -2.225580
v -0.141884 0.318538 -2.225580
v -0.054195 0.254828 -2.225580
v 0.054195 0.254828 -2.225580
v 0.141885 0.318538 -2.225580
v 0.175379 0.421623 -2.225580
v 0.141885 0.524708 -2.225580
v -0.044577 0.558819 -3.068540
v 0.044577 0.558819 -3.068540
v -0.116705 0.506415 -3.068540
v -0.144255 0.421624 -3.068540
v -0.116705 0.336832 -3.068540
v -0.044577 0.284429 -3.068540
v 0.044577 0.284429 -3.068540
v 0.116705 0.336832 -3.068540
v 0.144255 0.421624 -3.068540
v 0.116705 0.506415 -3.068540
v -0.022048 -0.172256 -0.799472
v -0.045135 -0.172256 -0.824209
v -0.045135 -0.172256 -0.953849
v -0.022048 -0.172256 -0.978585
v 0.022048 -0.172256 -0.978585
v 0.045136 -0.172256 -0.953849
v 0.045136 -0.172256 -0.824209
v 0.022048 -0.172256 -0.799472
v -0.045135 0.263241 -0.832130
v -0.022048 0.263241 -0.807393
v -0.022048 0.263242 -0.975451
v -0.045135 0.263241 -0.950714
v 0.045136 0.263241 -0.950714
v 0.022048 0.263242 -0.975451
v 0.022048 0.263241 -0.807393
v 0.045136 0.263241 -0.832130
v -0.022048 -0.141332 -0.799472
v -0.045135 -0.141332 -0.824209
v -0.045135 -0.141332 -0.953849
v -0.022048 -0.141332 -0.978585
v 0.022048 -0.141332 -0.978585
v 0.045136 -0.141332 -0.953849
v 0.045136 -0.141332 -0.824209
v 0.022048 -0.141332 -0.799472
v 0.022048 -0.134724 -0.808911
v 0.045136 -0.134724 -0.833648
v 0.022048 -0.134724 -0.976969
v 0.045136 -0.134724 -0.952233
v -0.022048 -0.134724 -0.976969
v -0.045135 -0.134724 -0.952233
v -0.022048 -0.134724 -0.808911
v -0.045135 -0.134724 -0.833648
v 0.019647 -0.179709 -0.968832
v -0.019646 -0.179709 -0.968832
v -0.040220 -0.179709 -0.831268
v -0.019646 -0.179709 -0.809225
v 0.040220 -0.179709 -0.946789
v 0.019647 -0.179709 -0.809225
v 0.040220 -0.179709 -0.831268
v -0.040220 -0.179709 -0.946789
v -0.089169 0.696059 -3.757756
v 0.089169 0.696059 -3.757756
v -0.233448 0.591234 -3.757756
v -0.288558 0.421624 -3.757756
v -0.233448 0.252014 -3.757756
v -0.089169 0.147189 -3.757756
v 0.089169 0.147189 -3.757756
v 0.233448 0.252014 -3.757756
v 0.288558 0.421624 -3.757756
v 0.233448 0.591234 -3.757756
v -0.100610 0.731269 -3.757756
v 0.100610 0.731269 -3.757756
v -0.263400 0.612995 -3.757756
v -0.325580 0.421624 -3.757756
v -0.263400 0.230252 -3.757756
v -0.100610 0.111979 -3.757756
v 0.100610 0.111979 -3.757756
v 0.263400 0.230252 -3.757756
v 0.325580 0.421624 -3.757756
v 0.263400 0.612995 -3.757756
v -0.086842 0.688895 -3.836699
v 0.086842 0.688895 -3.836699
v -0.227354 0.586806 -3.836699
v -0.281026 0.421624 -3.836699
v -0.227354 0.256441 -3.836699
v -0.086842 0.154353 -3.836699
v 0.086842 0.154353 -3.836699
v 0.227355 0.256441 -3.836699
v 0.281026 0.421624 -3.836699
v 0.227355 0.586806 -3.836699
v 0.079069 0.479070 0.604613
v 0.097734 0.421623 0.604613
v 0.079069 0.364176 0.604613
v 0.030202 0.328672 0.604613
v -0.030201 0.328672 0.604613
v -0.079069 0.364176 0.604613
v -0.097734 0.421623 0.604613
v -0.079069 0.479070 0.604613
v 0.030202 0.514574 0.604613
v -0.030201 0.514574 0.604613
v 0.030202 0.514574 0.631863
v 0.079069 0.479070 0.631863
v 0.097734 0.421623 0.631863
v 0.079069 0.364177 0.631863
v 0.030202 0.328672 0.631863
v -0.030201 0.328672 0.631863
v -0.079069 0.364177 0.631863
v -0.097734 0.421623 0.631863
v -0.079069 0.479070 0.631863
v -0.030201 0.514574 0.631863
v 0.144463 0.541132 0.811089
v 0.069244 0.516488 0.593644
v 0.069244 0.516488 0.811089
v 0.144463 0.516488 0.811089
v 0.144463 0.516489 -0.104731
v 0.069244 0.516489 -0.104731
v 0.069244 0.516488 -0.356221
v 0.144463 0.516488 -0.356221
v 0.069244 0.541132 -0.104731
v 0.144463 0.541132 -0.104731
v 0.069244 0.541132 -0.356221
v 0.144463 0.541132 -0.356221
v 0.036492 0.533934 1.045059
v 0.095537 0.491035 1.045059
v 0.118091 0.421623 1.045059
v 0.095537 0.352211 1.045059
v 0.036492 0.309312 1.045059
v -0.036492 0.309312 1.045059
v -0.095537 0.352211 1.045059
v -0.118091 0.421623 1.045059
v -0.095537 0.491035 1.045059
v -0.036492 0.533934 1.045059
v 0.027922 0.507557 -3.127264
v 0.073100 0.474733 -3.127264
v 0.090357 0.421623 -3.127264
v 0.073100 0.368513 -3.127264
v 0.027922 0.335689 -3.127264
v -0.027922 0.335689 -3.127264
v -0.073100 0.368513 -3.127264
v -0.090357 0.421623 -3.127264
v -0.073100 0.474733 -3.127264
v -0.027922 0.507557 -3.127264
v -0.100610 0.731269 -3.836699
v 0.100610 0.731269 -3.836699
v -0.263400 0.612995 -3.836699
v -0.325580 0.421624 -3.836699
v -0.263400 0.230252 -3.836699
v -0.100610 0.111979 -3.836699
v 0.100610 0.111979 -3.836699
v 0.263400 0.230252 -3.836699
v 0.325580 0.421624 -3.836699
v 0.263400 0.612995 -3.836699
v -0.086842 0.688895 -3.760056
v 0.086842 0.688895 -3.760056
v -0.227354 0.586806 -3.760056
v -0.281026 0.421624 -3.760056
v -0.227354 0.256441 -3.760056
v -0.086842 0.154353 -3.760056
v 0.086842 0.154353 -3.760056
v 0.227355 0.256441 -3.760056
v 0.281026 0.421624 -3.760056
v 0.227355 0.586806 -3.760056
v -0.063065 0.615716 -0.979788
v 0.063065 0.615716 -0.979788
v -0.165105 0.541579 -0.979788
v -0.204081 0.421623 -0.979788
v -0.165105 0.301667 -0.979788
v -0.063065 0.227531 -0.979788
v 0.063065 0.227531 -0.979788
v 0.165105 0.301667 -0.979788
v 0.204081 0.421623 -0.979788
v 0.165105 0.541579 -0.979788
v -0.054195 0.588419 -3.068540
v 0.054195 0.588419 -3.068540
v -0.141884 0.524709 -3.068540
v -0.175379 0.421624 -3.068540
v -0.141884 0.318538 -3.068540
v -0.054195 0.254828 -3.068540
v 0.054195 0.254828 -3.068540
v 0.141885 0.318538 -3.068540
v 0.175379 0.421624 -3.068540
v 0.141885 0.524709 -3.068540
v -0.063065 0.615716 -1.115524
v 0.063065 0.615716 -1.115524
v -0.165105 0.541579 -1.115524
v -0.204081 0.421623 -1.115524
v -0.165105 0.301667 -1.115524
v -0.063065 0.227530 -1.115524
v 0.063065 0.227530 -1.115524
v 0.165105 0.301667 -1.115524
v 0.204081 0.421623 -1.115524
v 0.165105 0.541579 -1.115524
v -0.063065 0.615716 -1.058881
v 0.063065 0.615716 -1.058881
v -0.165105 0.541579 -1.058881
v -0.204081 0.421623 -1.058881
v -0.165105 0.301667 -1.058881
v -0.063065 0.227531 -1.058881
v 0.063065 0.227531 -1.058881
v 0.165105 0.301667 -1.058881
v 0.204081 0.421623 -1.058881
v 0.165105 0.541579 -1.058881
v -0.066433 0.626083 -1.058881
v 0.066433 0.626083 -1.058881
v -0.173924 0.547986 -1.058881
v -0.214981 0.421623 -1.058881
v -0.173924 0.295260 -1.058881
v -0.066433 0.217164 -1.058881
v 0.066433 0.217164 -1.058881
v 0.173924 0.295260 -1.058881
v 0.214982 0.421623 -1.058881
v 0.173924 0.547986 -1.058881
v -0.066433 0.626083 -1.115524
v 0.066433 0.626083 -1.115524
v -0.173924 0.547986 -1.115524
v -0.214981 0.421623 -1.115524
v -0.173924 0.295260 -1.115524
v -0.066433 0.217164 -1.115524
v 0.066433 0.217164 -1.115524
v 0.173924 0.295260 -1.115524
v 0.214982 0.421623 -1.115524
v 0.173924 0.547986 -1.115524
v 0.039393 0.542863 0.782477
v 0.103132 0.496553 0.782477
v 0.127479 0.421623 0.782477
v 0.103132 0.346693 0.782477
v 0.039393 0.300384 0.782477
v -0.039393 0.300384 0.782477
v -0.103132 0.346693 0.782477
v -0.127478 0.421623 0.782477
v -0.103132 0.496553 0.782477
v -0.039393 0.542863 0.782477
v 0.039393 0.542863 0.809727
v 0.103132 0.496553 0.809727
v 0.127479 0.421623 0.809727
v 0.103132 0.346693 0.809727
v 0.039393 0.300384 0.809727
v -0.039393 0.300384 0.809727
v -0.103132 0.346693 0.809727
v -0.127478 0.421623 0.809727
v -0.103132 0.496553 0.809727
v -0.039393 0.542863 0.809727
v 0.039393 0.542863 0.604613
v 0.103132 0.496553 0.604613
v 0.127479 0.421623 0.604613
v 0.103132 0.346693 0.604613
v 0.039393 0.300384 0.604613
v -0.039393 0.300384 0.604613
v -0.103132 0.346693 0.604613
v -0.127478 0.421623 0.604613
v -0.103132 0.496553 0.604613
v -0.039393 0.542863 0.604613
v 0.039393 0.542863 0.631863
v 0.103132 0.496553 0.631863
v 0.127479 0.421623 0.631863
v 0.103132 0.346693 0.631863
v 0.039393 0.300384 0.631863
v -0.039393 0.300384 0.631863
v -0.103132 0.346693 0.631863
v -0.127478 0.421623 0.631863
v -0.103132 0.496553 0.631863
v -0.039393 0.542863 0.631863
v 0.069527 0.472138 1.055689
v 0.085940 0.421623 1.055689
v 0.069527 0.371109 1.055689
v 0.026557 0.339889 1.055689
v -0.026557 0.339889 1.055689
v -0.069527 0.371109 1.055689
v -0.085941 0.421623 1.055689
v -0.069527 0.472138 1.055689
v 0.026557 0.503358 1.055689
v -0.026557 0.503358 1.055689
v 0.019926 0.532700 1.225207
v 0.099483 0.474898 1.225207
v 0.111798 0.436997 1.225207
v 0.081409 0.343472 1.225207
v 0.049169 0.320048 1.225207
v -0.049169 0.320048 1.225207
v -0.081410 0.343472 1.225207
v -0.111798 0.436997 1.225207
v -0.099483 0.474898 1.225207
v -0.019926 0.532700 1.225207
v 0.035258 0.530135 1.323144
v 0.092306 0.488687 1.323144
v 0.114096 0.421623 1.323144
v 0.092306 0.354559 1.323144
v 0.035258 0.313111 1.323144
v -0.035258 0.313111 1.323144
v -0.092306 0.354559 1.323144
v -0.114096 0.421623 1.323144
v -0.092306 0.488687 1.323144
v -0.035258 0.530135 1.323144
v 0.067064 0.628026 1.829547
v 0.175576 0.549187 1.829547
v 0.217024 0.421623 1.829547
v 0.175576 0.294060 1.829547
v 0.067064 0.215221 1.829547
v -0.067064 0.215221 1.829547
v -0.175577 0.294060 1.829547
v -0.217025 0.421623 1.829547
v -0.175577 0.549187 1.829547
v -0.067064 0.628026 1.829547
v 0.067064 0.628026 2.064816
v 0.175576 0.549187 2.064816
v 0.217024 0.421623 2.064816
v 0.175576 0.294060 2.064816
v 0.067064 0.215221 2.064816
v -0.067064 0.215221 2.064816
v -0.175577 0.294060 2.064816
v -0.217025 0.421623 2.064816
v -0.175577 0.549187 2.064816
v -0.067064 0.628026 2.064816
v 0.018057 0.477196 2.602106
v 0.047273 0.455969 2.602106
v 0.058433 0.421623 2.602106
v 0.047273 0.387278 2.602106
v 0.018057 0.366051 2.602106
v -0.018057 0.366051 2.602106
v -0.047273 0.387278 2.602106
v -0.058433 0.421623 2.602106
v -0.047273 0.455969 2.602106
v -0.018057 0.477196 2.602106
v 0.011833 0.458041 2.602106
v 0.030979 0.444131 2.602106
v 0.038292 0.421623 2.602106
v 0.030979 0.399116 2.602106
v 0.011833 0.385206 2.602106
v -0.011833 0.385206 2.602106
v -0.030979 0.399116 2.602106
v -0.038292 0.421623 2.602106
v -0.030979 0.444131 2.602106
v -0.011833 0.458041 2.602106
v 0.011833 0.458041 2.668507
v 0.030979 0.444131 2.668507
v 0.038292 0.421623 2.668507
v 0.030979 0.399116 2.668507
v 0.011833 0.385206 2.668507
v -0.011833 0.385206 2.668507
v -0.030979 0.399116 2.668507
v -0.038292 0.421623 2.668507
v -0.030979 0.444131 2.668507
v -0.011833 0.458041 2.668507
v 0.027956 0.557414 1.071628
v 0.120506 0.490172 1.071628
v 0.137783 0.436997 1.071627
v 0.102432 0.328198 1.071627
v 0.057199 0.295334 1.071627
v -0.057199 0.295334 1.071627
v -0.102432 0.328198 1.071627
v -0.137783 0.436997 1.071627
v -0.120506 0.490172 1.071628
v -0.027956 0.557414 1.071628
v 0.026557 0.503358 -0.287898
v 0.069527 0.472138 -0.287898
v 0.085940 0.421624 -0.287898
v 0.069527 0.371109 -0.287898
v 0.026557 0.339889 -0.287898
v -0.026557 0.339889 -0.287898
v -0.069527 0.371109 -0.287898
v -0.085941 0.421624 -0.287898
v -0.069527 0.472138 -0.287898
v -0.026557 0.503358 -0.287898
v 0.018042 0.477151 -0.360316
v 0.047234 0.455941 -0.360316
v 0.058385 0.421624 -0.360316
v 0.047234 0.387306 -0.360316
v 0.018042 0.366096 -0.360316
v -0.018042 0.366096 -0.360316
v -0.047234 0.387306 -0.360316
v -0.058385 0.421624 -0.360316
v -0.047234 0.455941 -0.360316
v -0.018042 0.477151 -0.360316
v 0.117692 0.507132 1.055689
v 0.145475 0.421623 1.055689
v 0.117692 0.336115 1.055689
v 0.044954 0.283268 1.055689
v -0.044954 0.283268 1.055689
v -0.117692 0.336115 1.055689
v -0.145476 0.421623 1.055689
v -0.117692 0.507132 1.055689
v -0.044954 0.559979 1.055689
v 0.044954 0.559979 1.055689
v 0.092306 0.488687 1.241146
v 0.114096 0.421623 1.241146
v 0.092306 0.354559 1.241146
v 0.035258 0.313111 1.241146
v -0.035258 0.313111 1.241146
v -0.092306 0.354559 1.241146
v -0.114096 0.421623 1.241146
v -0.092306 0.488687 1.241146
v -0.035258 0.530135 1.241146
v 0.035258 0.530135 1.241146
v 0.144052 0.497823 1.075612
v 0.161330 0.444648 1.075611
v 0.116985 0.308169 1.075611
v 0.071751 0.275305 1.075611
v -0.071751 0.275305 1.075611
v -0.116985 0.308169 1.075611
v -0.161330 0.444648 1.075611
v -0.144052 0.497823 1.075612
v -0.027956 0.582172 1.075612
v 0.027956 0.582172 1.075612
v 0.106378 0.474304 1.229191
v 0.117027 0.441532 1.229191
v 0.082975 0.336730 1.229191
v 0.055097 0.316476 1.229191
v -0.055097 0.316476 1.229191
v -0.082975 0.336730 1.229191
v -0.117027 0.441532 1.229191
v -0.106379 0.474303 1.229191
v -0.017229 0.539074 1.229192
v 0.017229 0.539074 1.229192
v -0.051657 0.102214 -0.900464
v 0.051657 0.102214 -0.900464
v 0.051657 0.096360 -0.908522
v -0.051657 0.096360 -0.908522
v 0.051657 0.086887 -0.911600
v -0.051657 0.086887 -0.911600
v -0.051657 0.102214 -0.890504
v 0.051657 0.102214 -0.890504
v -0.051657 0.077414 -0.882446
v 0.051657 0.077414 -0.882446
v 0.051657 0.086887 -0.879368
v -0.051657 0.086887 -0.879368
v -0.051657 0.071560 -0.900464
v 0.051657 0.071560 -0.900464
v 0.051657 0.071560 -0.890504
v -0.051657 0.071560 -0.890504
v 0.051657 0.077414 -0.908522
v -0.051657 0.077414 -0.908522
v 0.051657 0.096360 -0.882446
v -0.051657 0.096360 -0.882446
v -0.051657 -0.093120 -0.016500
v 0.051657 -0.093120 -0.016500
v 0.051657 -0.098975 -0.024558
v -0.051657 -0.098975 -0.024558
v 0.051657 -0.108448 -0.027636
v -0.051657 -0.108448 -0.027636
v -0.051657 -0.093120 -0.006540
v 0.051657 -0.093120 -0.006540
v -0.051657 -0.117920 0.001518
v 0.051657 -0.117920 0.001518
v 0.051657 -0.108448 0.004596
v -0.051657 -0.108448 0.004596
v -0.051657 -0.123775 -0.016500
v 0.051657 -0.123775 -0.016500
v 0.051657 -0.123775 -0.006540
v -0.051657 -0.123775 -0.006540
v 0.051657 -0.117920 -0.024558
v -0.051657 -0.117920 -0.024558
v 0.051657 -0.098975 0.001518
v -0.051657 -0.098975 0.001518
v -0.026881 0.083386 -0.102960
v 0.026881 0.083386 -0.102960
v 0.026881 0.185200 -0.102960
v -0.026881 0.185200 -0.102960
v -0.026881 0.083386 -0.127745
v -0.026881 0.185200 -0.127745
v 0.026881 0.185200 -0.127745
v 0.026881 0.083386 -0.127745
v -0.026881 0.117324 -0.102960
v -0.026881 0.151262 -0.102960
v 0.026881 0.151262 -0.102960
v 0.026881 0.117324 -0.102960
v -0.026881 0.117324 -0.127745
v -0.026881 0.151262 -0.127745
v 0.026881 0.151262 -0.127745
v 0.026881 0.117324 -0.127745
v -0.026881 0.128687 -0.151833
v -0.026881 0.139899 -0.151833
v 0.026881 0.139899 -0.151833
v 0.026881 0.128687 -0.151833
v -0.069527 0.371109 0.383895
v -0.026557 0.339889 0.383895
v 0.069527 0.371109 0.383895
v 0.085940 0.421623 0.383896
v 0.026557 0.503358 0.383896
v -0.026557 0.503358 0.383896
v -0.085941 0.421623 0.383896
v 0.026557 0.339889 0.383895
v 0.069527 0.472138 0.383896
v -0.069527 0.472138 0.383896
v -0.026557 0.339889 0.468165
v 0.085940 0.421623 0.468165
v -0.026557 0.503358 0.468165
v -0.069527 0.371109 0.468165
v 0.069527 0.371109 0.468165
v 0.026557 0.503358 0.468165
v -0.085941 0.421623 0.468165
v 0.026557 0.339889 0.468165
v 0.069527 0.472138 0.468165
v -0.069527 0.472138 0.468165
v -0.026557 0.339889 0.993844
v 0.085940 0.421623 0.993844
v -0.026557 0.503358 0.993844
v -0.069527 0.371109 0.993844
v 0.069527 0.371109 0.993844
v 0.026557 0.503358 0.993844
v -0.085941 0.421623 0.993844
v 0.026557 0.339889 0.993844
v 0.069527 0.472138 0.993844
v -0.069527 0.472138 0.993844
v 0.067064 0.628026 1.902258
v 0.175576 0.549187 1.902258
v 0.217024 0.421623 1.902258
v 0.175576 0.294060 1.902258
v 0.067064 0.215221 1.902258
v -0.067064 0.215221 1.902258
v -0.175577 0.294060 1.902258
v -0.217025 0.421623 1.902258
v -0.175577 0.549187 1.902258
v -0.067064 0.628026 1.902258
v 0.067064 0.628026 1.992105
v 0.175576 0.549187 1.992105
v 0.217024 0.421623 1.992105
v 0.175576 0.294060 1.992105
v 0.067064 0.215221 1.992105
v -0.067064 0.215221 1.992105
v -0.175577 0.294060 1.992105
v -0.217025 0.421623 1.992105
v -0.175577 0.549187 1.992105
v -0.067064 0.628026 1.992105
v 0.072322 0.644209 1.914065
v 0.189343 0.559189 1.914066
v 0.234040 0.421623 1.914065
v 0.189343 0.284058 1.914065
v 0.072322 0.199038 1.914066
v -0.072322 0.199038 1.914066
v -0.189343 0.284058 1.914065
v -0.234040 0.421623 1.914065
v -0.189343 0.559189 1.914066
v -0.072322 0.644209 1.914065
v 0.072322 0.644209 1.980298
v 0.189343 0.559189 1.980298
v 0.234040 0.421623 1.980298
v 0.189343 0.284058 1.980298
v 0.072322 0.199038 1.980298
v -0.072322 0.199038 1.980298
v -0.189343 0.284058 1.980298
v -0.234040 0.421623 1.980298
v -0.189343 0.559189 1.980298
v -0.072322 0.644209 1.980298
v -0.035881 0.532055 -0.274560
v -0.093938 0.489874 -0.274560
v -0.116114 0.421623 -0.274560
v -0.093938 0.353373 -0.274560
v -0.035881 0.311192 -0.274560
v 0.035881 0.311192 -0.274560
v 0.093938 0.353373 -0.274560
v 0.116114 0.421623 -0.274560
v 0.093938 0.489874 -0.274560
v 0.035881 0.532055 -0.274560
v -0.035881 0.532055 -0.348651
v 0.035881 0.532055 -0.348651
v -0.093938 0.489874 -0.348651
v -0.116114 0.421623 -0.348651
v -0.093938 0.353373 -0.348651
v -0.035881 0.311192 -0.348651
v 0.035881 0.311192 -0.348651
v 0.093938 0.353373 -0.348651
v 0.116114 0.421623 -0.348651
v 0.093938 0.489874 -0.348651
v 0.046801 0.565663 -0.348651
v 0.122527 0.510645 -0.348651
v 0.151452 0.421623 -0.348651
v 0.122527 0.332602 -0.348651
v 0.046801 0.277584 -0.348651
v -0.046801 0.277584 -0.348651
v -0.122527 0.332602 -0.348651
v -0.151452 0.421623 -0.348651
v -0.122527 0.510645 -0.348651
v -0.046801 0.565663 -0.348651
v 0.046801 0.565663 -0.274560
v 0.122527 0.510645 -0.274560
v 0.151452 0.421623 -0.274560
v 0.122527 0.332602 -0.274560
v 0.046801 0.277584 -0.274560
v -0.046801 0.277584 -0.274560
v -0.122527 0.332602 -0.274560
v -0.151452 0.421623 -0.274560
v -0.122527 0.510645 -0.274560
v -0.046801 0.565663 -0.274560
v 0.080363 0.516489 -0.104731
v 0.133344 0.516489 -0.104731
v 0.080363 0.516488 -0.356221
v 0.133344 0.516488 -0.356221
v 0.080363 0.541132 -0.104731
v 0.133344 0.541132 -0.104731
v 0.080363 0.541132 -0.356221
v 0.133344 0.541132 -0.356221
v 0.133344 0.558030 -0.104731
v 0.144463 0.558030 -0.104731
v 0.133344 0.578573 -0.356221
v 0.144463 0.578573 -0.356221
v 0.069244 0.558030 -0.104731
v 0.069244 0.578573 -0.356221
v 0.080363 0.558030 -0.104731
v 0.080363 0.578573 -0.356221
v 0.069244 0.516488 -0.152425
v 0.069244 0.516488 -0.254323
v 0.144463 0.516488 -0.254323
v 0.144463 0.516488 -0.152425
v 0.069244 0.541132 -0.152425
v 0.069244 0.541132 -0.254323
v 0.144463 0.541132 -0.254323
v 0.144463 0.541132 -0.152425
v 0.133344 0.541132 -0.254323
v 0.133344 0.541132 -0.152425
v 0.080363 0.541132 -0.254323
v 0.080363 0.541132 -0.152425
v 0.133344 0.516488 -0.152425
v 0.133344 0.516488 -0.254323
v 0.080363 0.516488 -0.152425
v 0.080363 0.516488 -0.254323
v 0.069244 0.578573 -0.152425
v 0.069244 0.578573 -0.254323
v 0.144463 0.578573 -0.254323
v 0.144463 0.578573 -0.152425
v 0.133344 0.578573 -0.254323
v 0.133344 0.578573 -0.152425
v 0.080363 0.578573 -0.254323
v 0.080363 0.578573 -0.152425
v 0.069244 0.516488 -0.342080
v 0.069244 0.541132 -0.342080
v 0.133344 0.516488 -0.342080
v 0.080363 0.516488 -0.342080
v 0.069244 0.586889 -0.342080
v 0.144463 0.516488 -0.342080
v 0.144463 0.541132 -0.342080
v 0.133344 0.541132 -0.342080
v 0.080363 0.541132 -0.342080
v 0.144463 0.586889 -0.342080
v 0.133344 0.586889 -0.342080
v 0.080363 0.586889 -0.342080
v 0.080363 0.516488 0.811089
v 0.133344 0.516488 0.811089
v 0.133344 0.516488 0.593644
v 0.133344 0.541132 0.593644
v 0.144463 0.560379 0.811089
v 0.080363 0.560379 0.811089
v 0.080363 0.560379 0.593644
v 0.144463 0.516488 0.593644
v 0.069244 0.541132 0.811089
v 0.144463 0.541132 0.593644
v 0.133344 0.541132 0.811089
v 0.080363 0.541132 0.593644
v 0.080363 0.541132 0.811089
v 0.069244 0.560379 0.811089
v 0.069244 0.560379 0.593644
v 0.144463 0.560379 0.593644
v 0.133344 0.560379 0.593644
v 0.133344 0.560379 0.811089
v 0.069244 0.541132 0.593644
v 0.080363 0.516488 0.593644
v 0.127508 0.660088 0.746491
v 0.133344 0.540258 0.746492
v 0.086199 0.660088 0.746491
v 0.080363 0.540258 0.746492
v 0.086199 0.660088 0.733134
v 0.080363 0.540258 0.733134
v 0.133344 0.540258 0.733134
v 0.127508 0.660088 0.733134
v 0.086193 0.679141 0.746491
v 0.127514 0.679141 0.746491
v 0.086193 0.679141 0.733134
v 0.127514 0.679141 0.733134
v 0.102627 0.689007 0.746492
v 0.111081 0.689007 0.746492
v 0.102627 0.689007 0.733134
v 0.111081 0.689007 0.733134
v 0.080363 0.655934 0.746491
v 0.133344 0.655934 0.746491
v 0.080363 0.655934 0.733134
v 0.133344 0.655934 0.733134
v 0.123920 0.676825 0.746491
v 0.123920 0.676825 0.733134
v 0.089787 0.676825 0.733134
v 0.089787 0.676825 0.746491
v 0.100969 0.693162 0.746492
v 0.112738 0.693162 0.746492
v 0.100969 0.693162 0.733134
v 0.112738 0.693162 0.733134
v 0.111685 0.660088 0.746491
v 0.102022 0.660088 0.746491
v 0.102022 0.660088 0.733134
v 0.111685 0.660088 0.733134
v 0.108002 0.670389 0.746491
v 0.108002 0.670389 0.733134
v 0.105705 0.670389 0.746491
v 0.105705 0.670389 0.733134
v 0.127508 0.640398 -0.225679
v 0.133344 0.540288 -0.225679
v 0.086199 0.640398 -0.225679
v 0.080363 0.540288 -0.225679
v 0.086199 0.640398 -0.239037
v 0.080363 0.540288 -0.239037
v 0.133344 0.540288 -0.239037
v 0.127508 0.640398 -0.239037
v 0.086193 0.721998 -0.225679
v 0.127514 0.721998 -0.225679
v 0.086193 0.721998 -0.239037
v 0.127514 0.721998 -0.239037
v 0.102627 0.731864 -0.225679
v 0.111081 0.731864 -0.225679
v 0.102627 0.731864 -0.239037
v 0.111081 0.731864 -0.239037
v 0.080363 0.636244 -0.225679
v 0.133344 0.636244 -0.225679
v 0.080363 0.636244 -0.239037
v 0.133344 0.636244 -0.239037
v 0.123920 0.719682 -0.225679
v 0.123920 0.719682 -0.239037
v 0.089787 0.719682 -0.239037
v 0.089787 0.719682 -0.225679
v 0.100969 0.736019 -0.225679
v 0.112738 0.736019 -0.225679
v 0.100969 0.736019 -0.239037
v 0.112738 0.736019 -0.239037
v 0.133103 0.679121 -0.225679
v 0.133103 0.679121 -0.239037
v 0.127853 0.680040 -0.225679
v 0.127853 0.680040 -0.239037
v 0.080605 0.679121 -0.239037
v 0.080605 0.679121 -0.225679
v 0.085854 0.680040 -0.239037
v 0.085854 0.680040 -0.225679
v 0.133344 0.583115 -0.225015
v 0.080363 0.583115 -0.225015
v 0.080363 0.656746 -0.225015
v 0.133344 0.656746 -0.225015
v 0.080363 0.656746 -0.214654
v 0.080363 0.583115 -0.214654
v 0.133344 0.583115 -0.214654
v 0.133344 0.656746 -0.214654
v 0.098024 0.583115 -0.225015
v 0.115684 0.583115 -0.225015
v 0.098024 0.656746 -0.225015
v 0.115684 0.656746 -0.225015
v 0.098024 0.583115 -0.214654
v 0.115684 0.583115 -0.214654
v 0.098024 0.656746 -0.214654
v 0.115684 0.656746 -0.214654
v 0.118705 0.672429 -0.225015
v 0.130322 0.672429 -0.225015
v 0.118705 0.672429 -0.214654
v 0.130322 0.672429 -0.214654
v 0.083385 0.672429 -0.214654
v 0.083385 0.672429 -0.225015
v 0.095002 0.672429 -0.225015
v 0.095002 0.672429 -0.214654
v 0.058415 0.637468 -0.230582
v 0.058415 0.631468 -0.238840
v 0.058415 0.621760 -0.241995
v 0.058415 0.612051 -0.238840
v 0.058415 0.606051 -0.230582
v 0.058415 0.606051 -0.220374
v 0.058415 0.612051 -0.212116
v 0.058415 0.621760 -0.208961
v 0.058415 0.631468 -0.212116
v 0.058415 0.637468 -0.220374
v 0.154621 0.637468 -0.230582
v 0.154621 0.631468 -0.238840
v 0.154621 0.621760 -0.241995
v 0.154621 0.612051 -0.238840
v 0.154621 0.606051 -0.230582
v 0.154621 0.606051 -0.220374
v 0.154621 0.612051 -0.212116
v 0.154621 0.621760 -0.208961
v 0.154621 0.631468 -0.212116
v 0.154621 0.637468 -0.220374
v -0.063065 0.615716 -1.999712
v 0.063065 0.615716 -1.999712
v -0.165105 0.541579 -1.999712
v -0.204081 0.421623 -1.999712
v -0.165105 0.301667 -1.999712
v -0.063065 0.227530 -1.999712
v 0.063065 0.227530 -1.999712
v 0.165105 0.301667 -1.999712
v 0.204081 0.421623 -1.999712
v 0.165105 0.541579 -1.999712
v -0.063065 0.615716 -1.943069
v 0.063065 0.615716 -1.943069
v -0.165105 0.541580 -1.943069
v -0.204081 0.421623 -1.943069
v -0.165105 0.301667 -1.943069
v -0.063065 0.227531 -1.943069
v 0.063065 0.227531 -1.943069
v 0.165105 0.301667 -1.943069
v 0.204081 0.421623 -1.943069
v 0.165105 0.541580 -1.943069
v -0.066433 0.626083 -1.943069
v 0.066433 0.626083 -1.943069
v -0.173924 0.547987 -1.943069
v -0.214981 0.421623 -1.943069
v -0.173924 0.295260 -1.943069
v -0.066433 0.217164 -1.943069
v 0.066433 0.217164 -1.943069
v 0.173924 0.295260 -1.943069
v 0.214982 0.421623 -1.943069
v 0.173924 0.547987 -1.943069
v -0.066433 0.626083 -1.999712
v 0.066433 0.626083 -1.999712
v -0.173924 0.547986 -1.999712
v -0.214981 0.421623 -1.999712
v -0.173924 0.295260 -1.999712
v -0.066433 0.217164 -1.999712
v 0.066433 0.217164 -1.999712
v 0.173924 0.295260 -1.999712
v 0.214982 0.421623 -1.999712
v 0.173924 0.547986 -1.999712
v -0.053464 0.586170 -3.016424
v 0.053464 0.586169 -3.016424
v -0.139971 0.523319 -3.016424
v -0.173014 0.421623 -3.016423
v -0.139971 0.319928 -3.016423
v -0.053464 0.257077 -3.016424
v 0.053464 0.257077 -3.016424
v 0.139971 0.319928 -3.016423
v 0.173014 0.421623 -3.016423
v 0.139971 0.523319 -3.016424
v -0.053464 0.586170 -2.959780
v 0.053464 0.586170 -2.959780
v -0.139971 0.523319 -2.959780
v -0.173014 0.421624 -2.959780
v -0.139971 0.319928 -2.959780
v -0.053464 0.257078 -2.959780
v 0.053464 0.257078 -2.959780
v 0.139971 0.319928 -2.959780
v 0.173014 0.421624 -2.959780
v 0.139971 0.523319 -2.959780
v -0.057390 0.598254 -2.959780
v 0.057391 0.598254 -2.959780
v -0.150250 0.530787 -2.959780
v -0.185720 0.421624 -2.959780
v -0.150250 0.312460 -2.959780
v -0.057391 0.244994 -2.959780
v 0.057391 0.244994 -2.959780
v 0.150251 0.312460 -2.959780
v 0.185720 0.421624 -2.959780
v 0.150251 0.530787 -2.959780
v -0.057390 0.598254 -3.016424
v 0.057391 0.598253 -3.016424
v -0.150250 0.530787 -3.016424
v -0.185720 0.421623 -3.016423
v -0.150250 0.312460 -3.016423
v -0.057391 0.244993 -3.016424
v 0.057391 0.244993 -3.016424
v 0.150251 0.312460 -3.016423
v 0.185720 0.421623 -3.016423
v 0.150251 0.530787 -3.016424
v -0.035881 0.532055 -0.144124
v -0.093938 0.489874 -0.144124
v -0.116114 0.421623 -0.144124
v -0.093938 0.353373 -0.144124
v -0.035881 0.311192 -0.144124
v 0.035881 0.311192 -0.144124
v 0.093938 0.353373 -0.144124
v 0.116114 0.421623 -0.144124
v 0.093938 0.489874 -0.144124
v 0.035881 0.532055 -0.144124
v -0.035881 0.532055 -0.218214
v 0.035881 0.532055 -0.218214
v -0.093938 0.489874 -0.218214
v -0.116114 0.421623 -0.218214
v -0.093938 0.353373 -0.218214
v -0.035881 0.311192 -0.218214
v 0.035881 0.311192 -0.218214
v 0.093938 0.353373 -0.218214
v 0.116114 0.421623 -0.218214
v 0.093938 0.489874 -0.218214
v 0.046801 0.565663 -0.218214
v 0.122527 0.510645 -0.218214
v 0.151452 0.421623 -0.218214
v 0.122527 0.332602 -0.218214
v 0.046801 0.277584 -0.218214
v -0.046801 0.277584 -0.218214
v -0.122527 0.332602 -0.218214
v -0.151452 0.421623 -0.218214
v -0.122527 0.510645 -0.218214
v -0.046801 0.565663 -0.218214
v 0.046801 0.565663 -0.144124
v 0.122527 0.510645 -0.144124
v 0.151452 0.421623 -0.144124
v 0.122527 0.332602 -0.144124
v 0.046801 0.277584 -0.144124
v -0.046801 0.277584 -0.144124
v -0.122527 0.332602 -0.144124
v -0.151452 0.421623 -0.144124
v -0.122527 0.510645 -0.144124
v -0.046801 0.565663 -0.144124
v 0.080363 0.476355 -0.104731
v 0.133344 0.476355 -0.104731
v 0.080363 0.476355 -0.356221
v 0.133344 0.476355 -0.356221
v 0.133344 0.476355 -0.342080
v 0.080363 0.476355 -0.342080
v 0.133344 0.476355 -0.152425
v 0.133344 0.476355 -0.254323
v 0.080363 0.476355 -0.152425
v 0.080363 0.476355 -0.254323
v 0.090087 0.476355 0.811089
v 0.123620 0.476355 0.811089
v 0.090087 0.476355 0.593644
v 0.123620 0.476355 0.593644
v 0.015467 0.217657 0.093666
v -0.015467 0.217657 0.093666
v 0.015467 0.217657 0.122354
v -0.015467 0.217657 0.122354
vn -0.0000 1.0000 -0.0000
vn -0.0000 -1.0000 -0.0000
vn 1.0000 -0.0000 -0.0000
vn -1.0000 -0.0000 -0.0000
vn -0.0000 -0.0000 1.0000
vn -0.0000 -0.0000 -1.0000
vn -0.0000 0.8192 0.5735
vn 0.8348 -0.5506 -0.0000
vn -0.0000 0.2375 -0.9714
vn 0.5235 0.6980 0.4886
vn 0.7310 0.0040 -0.6823
vn -0.7211 0.1646 -0.6730
vn -0.7310 -0.0040 0.6823
vn -0.7311 -0.0000 0.6823
vn -0.7311 -0.0000 -0.6823
vn 0.7311 -0.0000 -0.6823
vn 0.7311 -0.0000 0.6823
vn -0.5235 0.6980 0.4886
vn -0.7310 0.0040 -0.6823
vn 0.7211 0.1646 -0.6730
vn 0.7310 -0.0040 0.6823
vn -0.0000 0.0058 -1.0000
vn -0.0000 -0.0058 1.0000
vn -0.8348 -0.5506 -0.0000
vn 0.4849 -0.7484 0.4525
vn -0.4849 -0.7484 0.4525
vn -0.0000 -0.7946 -0.6072
vn -0.0000 -0.7946 0.6072
vn -0.4849 -0.7484 -0.4525
vn 0.4849 -0.7484 -0.4525
vn -0.0000 -0.1419 0.9899
vn -0.0000 -0.5136 -0.8581
vn 0.5878 0.8090 -0.0040
vn 0.9510 0.3090 -0.0040
vn 0.9510 -0.3090 -0.0040
vn 0.5878 -0.8090 -0.0040
vn -0.0000 -1.0000 -0.0040
vn -0.5878 -0.8090 -0.0040
vn -0.9510 -0.3090 -0.0040
vn -0.9510 0.3090 -0.0040
vn -0.5878 0.8090 -0.0040
vn -0.0000 1.0000 -0.0040
vn -0.0000 -0.6451 -0.7641
vn -0.0000 0.1519 0.9884
vn -0.0000 -0.0571 0.9984
vn -0.0000 -0.0685 -0.9977
vn 0.9137 0.2969 0.2776
vn -0.0000 -0.9607 0.2776
vn -0.9137 0.2969 0.2776
vn 0.5647 0.7772 0.2776
vn 0.5647 -0.7772 0.2776
vn -0.9137 -0.2969 0.2776
vn -0.0000 0.9607 0.2776
vn 0.9137 -0.2969 0.2776
vn -0.5647 -0.7772 0.2776
vn -0.5878 -0.8090 -0.0000
vn -0.9003 0.2925 0.3224
vn -0.5647 0.7772 0.2776
vn -0.0000 0.8090 0.5878
vn -0.0000 -0.8090 0.5878
vn -0.0000 -0.8090 -0.5878
vn -0.0000 0.3090 0.9511
vn -0.0000 -0.3090 -0.9511
vn -0.0000 -0.3090 0.9511
vn -0.0000 0.3090 -0.9511
vn -0.0000 0.8090 -0.5878
vn -0.0000 0.5456 -0.8380
vn -0.0000 -0.2948 -0.9556
vn -0.0000 -0.5574 0.8302
vn -0.0000 -0.1101 0.9939
vn -0.0000 0.0111 -0.9999
vn -0.0000 0.3244 0.9459
vn -0.0000 -0.0378 0.9993
vn -0.0000 0.0749 -0.9972
vn -0.5878 0.8090 -0.0000
vn 0.9511 0.3090 -0.0000
vn -0.9511 0.3090 -0.0000
vn 0.5878 0.8090 -0.0000
vn 0.5878 -0.8090 -0.0000
vn -0.9511 -0.3090 -0.0000
vn 0.9511 -0.3090 -0.0000
vn 0.9003 0.2925 0.3224
vn -0.5564 -0.7658 0.3224
vn -0.5564 0.7658 0.3224
vn 0.9003 -0.2925 0.3224
vn -0.9003 -0.2925 0.3224
vn 0.5564 0.7658 0.3224
vn -0.0000 -0.9466 0.3224
vn -0.0000 0.9466 0.3224
vn 0.5564 -0.7658 0.3224
vn -0.9347 -0.3037 0.1846
vn -0.9330 -0.3031 -0.1940
vn -0.0000 0.9810 -0.1940
vn 0.9330 -0.3031 -0.1940
vn -0.5766 -0.7936 -0.1940
vn -0.5766 0.7936 -0.1940
vn 0.9330 0.3031 -0.1940
vn -0.0000 -0.9810 -0.1940
vn -0.9330 0.3031 -0.1940
vn 0.5766 0.7936 -0.1940
vn 0.5766 -0.7936 -0.1940
vn -0.0000 0.2376 -0.9714
vn 0.7310 0.0026 -0.6823
vn -0.7310 -0.0026 0.6823
vn -0.7310 0.0026 -0.6823
vn 0.7310 -0.0026 0.6823
vn -0.0000 0.0038 -1.0000
vn -0.0000 -0.0038 1.0000
vn -0.0000 0.9828 0.1846
vn 0.9347 -0.3037 0.1846
vn -0.5777 -0.7951 0.1846
vn -0.5777 0.7951 0.1846
vn 0.9347 0.3037 0.1846
vn -0.0000 -0.9828 0.1846
vn -0.9347 0.3037 0.1846
vn 0.5777 0.7951 0.1846
vn 0.5777 -0.7951 0.1846
vn -0.9143 -0.2971 -0.2755
vn -0.9143 0.2971 -0.2755
vn -0.5650 0.7777 -0.2755
vn -0.0000 0.9613 -0.2755
vn 0.5650 0.7777 -0.2755
vn 0.9143 0.2971 -0.2755
vn 0.9143 -0.2971 -0.2755
vn 0.5650 -0.7777 -0.2755
vn -0.0000 -0.9613 -0.2755
vn -0.5650 -0.7777 -0.2755
vn -0.0000 0.5766 0.8171
vn -0.3389 0.4664 0.8171
vn -0.5483 0.1782 0.8171
vn -0.5483 -0.1782 0.8171
vn -0.3389 -0.4664 0.8171
vn -0.0000 -0.5766 0.8171
vn 0.3389 -0.4664 0.8171
vn 0.5483 -0.1782 0.8171
vn 0.5483 0.1782 0.8171
vn 0.3389 0.4664 0.8171
vn -0.7656 -0.6389 0.0755
vn -0.5803 0.7987 0.1589
vn -0.0000 0.1589 -0.9873
vn 0.9390 -0.3051 0.1589
vn 0.3710 -0.9255 0.0755
vn -0.9390 -0.3051 0.1589
vn -0.3710 -0.9255 0.0755
vn 0.5803 0.7987 0.1589
vn -0.1511 0.0491 -0.9873
vn -0.0000 -0.9873 0.1589
vn -0.5771 -0.7943 -0.1898
vn 0.9338 -0.3034 -0.1898
vn -0.0000 0.9818 -0.1898
vn -0.9338 -0.3034 -0.1898
vn 0.5771 -0.7943 -0.1898
vn 0.5771 0.7943 -0.1898
vn -0.9338 0.3034 -0.1898
vn -0.0000 -0.9818 -0.1898
vn 0.9338 0.3034 -0.1898
vn -0.5771 0.7943 -0.1898
vn -0.0000 0.9628 0.2703
vn -0.9157 -0.2975 0.2703
vn 0.5659 -0.7789 0.2703
vn 0.5659 0.7789 0.2703
vn -0.9157 0.2975 0.2703
vn -0.0000 -0.9628 0.2703
vn 0.9157 0.2975 0.2703
vn -0.5659 0.7789 0.2703
vn -0.5659 -0.7789 0.2703
vn 0.9157 -0.2975 0.2703
vn 0.8943 -0.2906 -0.3403
vn -0.0000 0.9403 -0.3403
vn -0.8943 -0.2906 -0.3403
vn 0.5527 -0.7607 -0.3403
vn 0.5527 0.7607 -0.3403
vn -0.8943 0.2906 -0.3403
vn -0.0000 -0.9403 -0.3403
vn 0.8943 0.2906 -0.3403
vn -0.5527 0.7607 -0.3403
vn -0.5527 -0.7607 -0.3403
vn 0.9390 0.3051 0.1589
vn 0.5803 -0.7987 0.1589
vn -0.5803 -0.7987 0.1589
vn -0.9390 0.3051 0.1589
vn -0.0000 0.9873 0.1589
vn 0.9157 0.2975 0.2702
vn -0.5659 -0.7789 0.2702
vn -0.0000 0.9628 0.2702
vn 0.5659 -0.7789 0.2702
vn -0.9157 0.2975 0.2702
vn 0.2439 0.9669 0.0755
vn -0.5041 -0.1638 0.8480
vn -0.9949 0.0669 0.0755
vn -0.3115 0.4288 0.8480
vn 0.7656 -0.6389 0.0755
vn 0.3115 0.4288 0.8480
vn 0.1511 0.0491 -0.9873
vn -0.8442 0.5307 0.0755
vn 0.5041 -0.1638 0.8480
vn 0.0934 -0.1285 -0.9873
vn 0.8442 0.5307 0.0755
vn -0.0000 -0.5300 0.8480
vn -0.0934 -0.1285 -0.9873
vn 0.9949 0.0669 0.0755
vn -0.2439 0.9669 0.0755
vn -0.0000 0.9044 -0.4266
vn -0.0000 -0.9044 -0.4266
vn 0.5606 0.1821 -0.8078
vn -0.5606 -0.1821 0.8078
vn -0.0000 0.5894 -0.8078
vn 0.5606 -0.1821 -0.8078
vn -0.5606 0.1821 0.8078
vn 0.3464 0.4768 0.8078
vn 0.3464 -0.4768 -0.8078
vn -0.3464 0.4768 0.8078
vn 0.5606 0.1821 0.8078
vn -0.0000 -0.5894 -0.8078
vn -0.0000 0.5894 0.8078
vn 0.5606 -0.1821 0.8078
vn -0.3464 -0.4768 -0.8078
vn 0.3464 -0.4768 0.8078
vn -0.5606 -0.1821 -0.8078
vn -0.0000 -0.5894 0.8078
vn -0.5606 0.1821 -0.8078
vn 0.3464 0.4768 -0.8078
vn -0.3464 -0.4768 0.8078
vn -0.3464 0.4768 -0.8078
vn -0.0000 0.9184 0.3956
vn -0.0000 0.9955 0.0943
vn -0.0000 0.8620 -0.5069
vn 0.9699 0.2436 -0.0000
vn 0.6883 0.7254 -0.0000
vn 0.6883 -0.7254 -0.0000
vn -0.9699 0.2436 -0.0000
vn -0.6883 -0.7254 -0.0000
vn -0.6883 0.7254 -0.0000
vn -0.9778 -0.2096 -0.0000
vn 0.9778 -0.2096 -0.0000
vn -0.9416 0.3367 -0.0000
vn 0.9416 0.3367 -0.0000
vn 1.0000 0.0028 -0.0000
vn 0.9916 0.1292 -0.0000
vn -1.0000 0.0028 -0.0000
vn -0.9916 0.1292 -0.0000
vn -0.9951 -0.0987 -0.0000
vn 1.0000 0.0087 -0.0000
vn -1.0000 0.0087 -0.0000
vn 1.0000 0.0056 -0.0000
vn 0.9951 -0.0987 -0.0000
vn -1.0000 0.0056 -0.0000
vn 0.9819 0.1892 -0.0000
vn -0.9819 0.1892 -0.0000
vn 0.9719 -0.2355 -0.0000
vn -0.9719 -0.2355 -0.0000
vn -0.0000 0.6519 -0.7583
vn -0.0000 0.6519 0.7583
vt 0.402344 0.960937
vt 0.591797 0.283203
vt 0.402344 0.960938
vt 0.288218 0.972656
vt 0.718750 0.972656
vt 0.402344 0.960937
vt 0.402344 0.960938
vt 0.402344 0.960938
vt 0.402344 0.960937
vt 0.288218 0.972656
vt 0.519531 0.972656
vt 0.647492 0.288559
vt 0.288218 0.972656
vt 0.288218 0.972656
vt 0.288218 0.972656
vt 0.288218 0.972656
vt 0.288218 0.972656
vt 0.288218 0.972656
vt 0.288218 0.972656
vt 0.288218 0.972656
vt 0.288218 0.972656
vt 0.647492 0.288558
vt 0.647492 0.288559
vt 0.647492 0.288559
vt 0.647492 0.288559
vt 0.647492 0.288559
vt 0.647492 0.288559
vt 0.647492 0.288559
vt 0.647492 0.288559
vt 0.647492 0.288559
vt 0.647492 0.288559
vt 0.283296 0.972656
vt 0.519531 0.972656
vt 0.519531 0.972656
vt 0.519531 0.972656
vt 0.519531 0.972656
vt 0.519531 0.972656
vt 0.519531 0.972656
vt 0.519531 0.972656
vt 0.519531 0.972656
vt 0.519531 0.972656
vt 0.519531 0.972656
vt 0.519531 0.972656
vt 0.408490 0.964627
vt 0.408490 0.964627
vt 0.590588 0.285451
vt 0.590588 0.285451
vt 0.590588 0.285451
vt 0.590588 0.285451
vt 0.777608 0.969548
vt 0.590588 0.285451
vt 0.408490 0.964627
vt 0.590588 0.285451
vt 0.402344 0.960937
vt 0.402344 0.960938
vt 0.782529 0.959705
vt 0.782529 0.959705
vt 0.408490 0.964627
vt 0.782529 0.964627
vt 0.782529 0.964627
vt 0.782529 0.964627
vt 0.288218 0.972656
vt 0.288218 0.972656
vt 0.288218 0.967735
s 1
f 3/1/1 2/1/1 1/1/1 4/1/1
f 7/1/2 8/1/2 5/1/2 6/1/2
f 3/1/3 4/1/3 8/1/3 7/1/3
f 1/1/4 2/1/4 6/1/4 5/1/4
f 4/1/5 1/1/5 5/1/5 8/1/5
f 2/1/6 3/1/6 7/1/6 6/1/6
f 33/2/7 39/2/7 25/2/7 32/2/7
f 14/2/8 15/2/8 47/2/8 45/2/8
f 30/2/3 31/2/3 15/2/3 14/2/3
f 21/2/1 22/2/1 19/2/1 20/2/1 17/2/1 18/2/1 23/2/1 24/2/1
f 37/2/9 35/2/9 29/2/9 28/2/9
f 36/2/3 34/2/3 31/2/3 30/2/3
f 33/2/10 32/2/10 31/2/10 34/2/10
f 35/2/11 22/2/11 21/2/11 36/2/11
f 37/2/12 28/2/12 27/2/12 38/2/12
f 39/2/13 18/2/13 17/2/13 40/2/13
f 40/2/4 38/2/4 27/2/4 26/2/4
f 25/2/14 26/2/14 10/2/14 9/2/14
f 32/2/5 25/2/5 9/2/5 16/2/5
f 27/2/15 28/2/15 12/2/15 11/2/15
f 26/2/4 27/2/4 11/2/4 10/2/4
f 29/2/16 30/2/16 14/2/16 13/2/16
f 31/2/17 32/2/17 16/2/17 15/2/17
f 28/2/6 29/2/6 13/2/6 12/2/6
f 17/2/4 20/2/4 38/2/4 40/2/4
f 25/2/18 39/2/18 40/2/18 26/2/18
f 19/2/19 37/2/19 38/2/19 20/2/19
f 29/2/20 35/2/20 36/2/20 30/2/20
f 23/2/21 33/2/21 34/2/21 24/2/21
f 21/2/3 24/2/3 34/2/3 36/2/3
f 19/2/22 22/2/22 35/2/22 37/2/22
f 23/2/23 18/2/23 39/2/23 33/2/23
f 41/2/2 45/2/2 47/2/2 46/2/2 44/2/2 43/2/2 48/2/2 42/2/2
f 10/2/24 11/2/24 48/2/24 43/2/24
f 15/2/25 16/2/25 46/2/25 47/2/25
f 9/2/26 10/2/26 43/2/26 44/2/26
f 12/2/27 13/2/27 41/2/27 42/2/27
f 16/2/28 9/2/28 44/2/28 46/2/28
f 11/2/29 12/2/29 42/2/29 48/2/29
f 13/2/30 14/2/30 45/2/30 41/2/30
f 67/1/1 68/1/1 49/1/1 52/1/1
f 67/1/3 52/1/3 70/1/3 69/1/3
f 63/3/4 50/1/4 53/1/4 64/3/4
f 52/1/5 49/1/5 71/1/5 70/1/5
f 50/1/6 51/1/6 54/1/6 53/1/6
f 68/1/4 55/1/4 57/1/4 72/1/4
f 61/1/3 56/1/3 58/1/3 62/1/3
f 62/1/31 58/1/31 57/1/31 60/1/31
f 61/1/1 59/1/1 55/1/1 56/1/1
f 65/3/1 63/3/1 59/1/1 61/1/1
f 66/3/2 62/1/2 60/1/2 64/3/2
f 65/3/3 61/1/3 62/1/3 66/3/3
f 55/1/4 59/1/4 60/1/4 57/1/4
f 51/1/3 65/3/3 66/3/3 54/1/3
f 54/1/32 66/3/32 64/3/32 53/1/32
f 51/1/1 50/1/1 63/3/1 65/3/1
f 59/1/4 63/3/4 64/3/4 60/1/4
f 49/1/4 68/1/4 72/1/4 71/1/4
f 56/1/3 67/1/3 69/1/3 58/1/3
f 58/1/2 69/1/2 72/1/2 57/1/2
f 56/1/1 55/1/1 68/1/1 67/1/1
f 181/1/1 184/1/1 183/1/1 182/1/1
f 69/1/2 70/1/2 71/1/2 72/1/2
f 116/4/33 73/4/33 114/4/33 115/4/33
f 115/4/34 114/4/34 88/4/34 113/4/34
f 113/4/35 88/4/35 86/4/35 87/4/35
f 87/4/36 86/4/36 84/4/36 85/4/36
f 85/4/37 84/4/37 82/4/37 83/4/37
f 83/4/38 82/4/38 80/4/38 81/4/38
f 101/3/6 100/3/6 96/3/6 90/3/6
f 97/1/1 99/3/1 93/3/1 94/1/1
f 104/1/2 101/3/2 90/3/2 89/1/2
f 98/1/5 104/1/5 89/1/5 95/1/5
f 99/3/6 102/3/6 91/3/6 93/3/6
f 100/3/1 98/1/1 95/1/1 96/3/1
f 102/3/2 103/1/2 92/1/2 91/3/2
f 103/1/5 97/1/5 94/1/5 92/1/5
f 94/1/4 93/3/4 91/3/4 92/1/4
f 96/3/3 95/1/3 89/1/3 90/3/3
f 100/3/4 101/3/4 104/1/4 98/1/4
f 97/1/3 103/1/3 102/3/3 99/3/3
f 112/1/4 110/3/4 107/3/4 106/1/4
f 109/3/3 111/1/3 105/1/3 108/3/3
f 110/3/6 109/3/6 108/3/6 107/3/6
f 111/1/5 112/1/5 106/1/5 105/1/5
f 108/3/2 105/1/2 106/1/2 107/3/2
f 109/3/1 110/3/1 112/1/1 111/1/1
f 81/4/39 80/4/39 78/4/39 79/4/39
f 79/4/40 78/4/40 76/4/40 77/4/40
f 77/4/41 76/4/41 74/4/41 75/4/41
f 75/4/42 74/4/42 73/4/42 116/4/42
f 118/3/3 119/3/3 1157/3/3 1159/3/3
f 124/3/2 122/3/2 121/3/2 123/3/2
f 126/3/4 125/3/4 122/3/4 124/3/4
f 125/3/43 127/3/43 121/3/43 122/3/43
f 128/3/44 126/3/44 124/3/44 123/3/44
f 127/3/3 128/3/3 123/3/3 121/3/3
f 119/3/3 118/3/3 128/3/3 127/3/3
f 118/3/45 117/3/45 126/3/45 128/3/45
f 120/3/46 119/3/46 127/3/46 125/3/46
f 117/3/4 120/3/4 125/3/4 126/3/4
f 88/4/47 114/4/47 147/4/47 146/4/47
f 82/4/48 84/4/48 144/4/48 143/4/48
f 76/4/49 78/4/49 141/4/49 140/4/49
f 114/4/50 73/4/50 148/4/50 147/4/50
f 84/4/51 86/4/51 145/4/51 144/4/51
f 78/4/52 80/4/52 142/4/52 141/4/52
f 73/4/53 74/4/53 139/4/53 148/4/53
f 86/4/54 88/4/54 146/4/54 145/4/54
f 80/4/55 82/4/55 143/4/55 142/4/55
f 142/4/56 143/4/56 380/4/56 381/4/56
f 79/4/57 77/4/57 215/4/57 216/4/57
f 74/4/58 76/4/58 140/4/58 139/4/58
f 155/5/59 168/5/59 167/5/59 156/5/59
f 157/5/60 164/5/60 163/5/60 158/5/60
f 161/5/61 166/5/61 165/5/61 162/5/61
f 168/5/62 160/5/62 159/5/62 167/5/62
f 166/5/63 154/5/63 153/5/63 165/5/63
f 164/5/2 161/5/2 162/5/2 163/5/2
f 160/5/64 157/5/64 158/5/64 159/5/64
f 149/5/1 155/5/1 156/5/1 150/5/1
f 154/5/65 152/5/65 151/5/65 153/5/65
f 152/5/66 149/5/66 150/5/66 151/5/66
f 167/5/3 159/5/3 158/5/3 163/5/3 162/5/3 165/5/3 153/5/3 151/5/3 150/5/3 156/5/3
f 168/5/4 155/5/4 149/5/4 152/5/4 154/5/4 166/5/4 161/5/4 164/5/4 157/5/4 160/5/4
f 175/1/67 180/3/67 177/1/67 174/6/67
f 185/1/2 186/1/2 187/1/2 188/1/2
f 176/7/1 175/1/1 174/6/1 173/6/1
f 191/1/68 190/1/68 185/1/68 188/1/68
f 189/1/69 192/1/69 187/1/69 186/1/69
f 182/1/70 183/1/70 192/1/70 189/1/70
f 184/1/71 181/1/71 190/1/71 191/1/71
f 179/7/72 176/7/72 173/6/72 178/8/72
f 172/3/73 179/7/73 178/8/73 171/3/73
f 170/6/3 171/3/3 181/1/3 182/1/3
f 172/3/4 169/9/4 183/1/4 184/1/4
f 173/6/3 174/6/3 186/1/3 185/1/3
f 175/1/4 176/7/4 188/1/4 187/1/4
f 174/6/3 177/1/3 189/1/3 186/1/3
f 171/3/3 178/8/3 190/1/3 181/1/3
f 176/7/4 179/7/4 191/1/4 188/1/4
f 169/9/4 180/3/4 192/1/4 183/1/4
f 177/1/3 170/6/3 182/1/3 189/1/3
f 178/8/3 173/6/3 185/1/3 190/1/3
f 179/7/4 172/3/4 184/1/4 191/1/4
f 180/3/4 175/1/4 187/1/4 192/1/4
f 180/3/74 169/9/74 170/6/74 177/1/74
f 169/9/2 172/3/2 171/3/2 170/6/2
f 132/10/75 131/10/75 388/10/75 389/10/75
f 139/4/75 140/4/75 383/4/75 384/4/75
f 146/4/76 147/4/76 376/4/76 377/4/76
f 143/4/2 144/4/2 379/4/2 380/4/2
f 140/4/77 141/4/77 382/4/77 383/4/77
f 147/4/78 148/4/78 375/4/78 376/4/78
f 144/4/79 145/4/79 378/4/79 379/4/79
f 141/4/80 142/4/80 381/4/80 382/4/80
f 148/4/1 139/4/1 384/4/1 375/4/1
f 145/4/81 146/4/81 377/4/81 378/4/81
f 484/11/75 483/11/75 493/11/75 494/11/75
f 481/11/56 480/11/56 490/11/56 491/11/56
f 478/11/81 477/11/81 487/11/81 488/11/81
f 475/11/1 484/11/1 494/11/1 485/11/1
f 482/11/80 481/11/80 491/11/80 492/11/80
f 479/11/79 478/11/79 488/11/79 489/11/79
f 476/11/78 475/11/78 485/11/78 486/11/78
f 483/11/77 482/11/77 492/11/77 493/11/77
f 480/11/2 479/11/2 489/11/2 490/11/2
f 477/11/76 476/11/76 486/11/76 487/11/76
f 216/4/77 215/4/77 225/4/77 226/4/77
f 115/4/82 113/4/82 221/4/82 222/4/82
f 83/4/83 81/4/83 217/4/83 218/4/83
f 77/4/84 75/4/84 213/4/84 215/4/84
f 113/4/85 87/4/85 220/4/85 221/4/85
f 81/4/86 79/4/86 216/4/86 217/4/86
f 116/4/87 115/4/87 222/4/87 214/4/87
f 85/4/88 83/4/88 218/4/88 219/4/88
f 75/4/89 116/4/89 214/4/89 213/4/89
f 87/4/90 85/4/90 219/4/90 220/4/90
f 227/4/91 226/4/91 316/4/91 317/4/91
f 214/4/78 222/4/78 232/4/78 224/4/78
f 220/4/79 219/4/79 229/4/79 230/4/79
f 217/4/80 216/4/80 226/4/80 227/4/80
f 213/4/1 214/4/1 224/4/1 223/4/1
f 221/4/81 220/4/81 230/4/81 231/4/81
f 218/4/56 217/4/56 227/4/56 228/4/56
f 215/4/75 213/4/75 223/4/75 225/4/75
f 222/4/76 221/4/76 231/4/76 232/4/76
f 219/4/2 218/4/2 228/4/2 229/4/2
f 247/12/92 246/12/92 256/12/92 257/12/92
f 419/12/80 418/12/80 246/12/80 247/12/80
f 415/12/1 416/12/1 244/12/1 243/12/1
f 423/12/81 422/12/81 250/12/81 251/12/81
f 420/12/56 419/12/56 247/12/56 248/12/56
f 417/12/75 415/12/75 243/12/75 245/12/75
f 424/12/76 423/12/76 251/12/76 252/12/76
f 421/12/2 420/12/2 248/12/2 249/12/2
f 418/12/77 417/12/77 245/12/77 246/12/77
f 416/12/78 424/12/78 252/12/78 244/12/78
f 422/12/79 421/12/79 249/12/79 250/12/79
f 253/12/1 254/12/1 426/12/1 425/12/1
f 243/12/93 244/12/93 254/12/93 253/12/93
f 251/12/94 250/12/94 260/12/94 261/12/94
f 248/12/95 247/12/95 257/12/95 258/12/95
f 245/12/96 243/12/96 253/12/96 255/12/96
f 252/12/97 251/12/97 261/12/97 262/12/97
f 249/12/98 248/12/98 258/12/98 259/12/98
f 246/12/99 245/12/99 255/12/99 256/12/99
f 244/12/100 252/12/100 262/12/100 254/12/100
f 250/12/101 249/12/101 259/12/101 260/12/101
f 261/12/81 260/12/81 432/12/81 433/12/81
f 258/12/56 257/12/56 429/12/56 430/12/56
f 255/12/75 253/12/75 425/12/75 427/12/75
f 262/12/76 261/12/76 433/12/76 434/12/76
f 259/12/2 258/12/2 430/12/2 431/12/2
f 256/12/77 255/12/77 427/12/77 428/12/77
f 254/12/78 262/12/78 434/12/78 426/12/78
f 260/12/79 259/12/79 431/12/79 432/12/79
f 257/12/80 256/12/80 428/12/80 429/12/80
f 297/2/7 303/2/7 289/2/7 296/2/7
f 278/2/8 279/2/8 311/2/8 309/2/8
f 294/2/3 295/2/3 279/2/3 278/2/3
f 285/2/1 286/2/1 283/2/1 284/2/1 281/2/1 282/2/1 287/2/1 288/2/1
f 301/2/102 299/2/102 293/2/102 292/2/102
f 300/2/3 298/2/3 295/2/3 294/2/3
f 297/2/10 296/2/10 295/2/10 298/2/10
f 299/2/103 286/2/103 285/2/103 300/2/103
f 301/2/12 292/2/12 291/2/12 302/2/12
f 303/2/104 282/2/104 281/2/104 304/2/104
f 304/2/4 302/2/4 291/2/4 290/2/4
f 289/2/14 290/2/14 274/2/14 273/2/14
f 296/2/5 289/2/5 273/2/5 280/2/5
f 291/2/15 292/2/15 276/2/15 275/2/15
f 290/2/4 291/2/4 275/2/4 274/2/4
f 293/2/16 294/2/16 278/2/16 277/2/16
f 295/2/17 296/2/17 280/2/17 279/2/17
f 292/2/6 293/2/6 277/2/6 276/2/6
f 281/2/4 284/2/4 302/2/4 304/2/4
f 289/2/18 303/2/18 304/2/18 290/2/18
f 283/2/105 301/2/105 302/2/105 284/2/105
f 293/2/20 299/2/20 300/2/20 294/2/20
f 287/2/106 297/2/106 298/2/106 288/2/106
f 285/2/3 288/2/3 298/2/3 300/2/3
f 283/2/107 286/2/107 299/2/107 301/2/107
f 287/2/108 282/2/108 303/2/108 297/2/108
f 305/2/2 309/2/2 311/2/2 310/2/2 308/2/2 307/2/2 312/2/2 306/2/2
f 274/2/24 275/2/24 312/2/24 307/2/24
f 279/2/25 280/2/25 310/2/25 311/2/25
f 273/2/26 274/2/26 307/2/26 308/2/26
f 276/2/27 277/2/27 305/2/27 306/2/27
f 280/2/28 273/2/28 308/2/28 310/2/28
f 275/2/29 276/2/29 306/2/29 312/2/29
f 277/2/30 278/2/30 309/2/30 305/2/30
f 315/4/5 313/4/5 323/4/5 325/4/5
f 223/4/109 224/4/109 314/4/109 313/4/109
f 231/4/110 230/4/110 320/4/110 321/4/110
f 228/4/111 227/4/111 317/4/111 318/4/111
f 225/4/112 223/4/112 313/4/112 315/4/112
f 232/4/113 231/4/113 321/4/113 322/4/113
f 229/4/114 228/4/114 318/4/114 319/4/114
f 226/4/115 225/4/115 315/4/115 316/4/115
f 224/4/116 232/4/116 322/4/116 314/4/116
f 230/4/117 229/4/117 319/4/117 320/4/117
f 332/4/76 331/4/76 403/4/76 404/4/76
f 322/4/5 321/4/5 331/4/5 332/4/5
f 319/4/5 318/4/5 328/4/5 329/4/5
f 316/4/5 315/4/5 325/4/5 326/4/5
f 314/4/5 322/4/5 332/4/5 324/4/5
f 320/4/5 319/4/5 329/4/5 330/4/5
f 317/4/5 316/4/5 326/4/5 327/4/5
f 313/4/5 314/4/5 324/4/5 323/4/5
f 321/4/5 320/4/5 330/4/5 331/4/5
f 318/4/5 317/4/5 327/4/5 328/4/5
f 340/13/75 339/14/75 411/14/75 412/13/75
f 329/4/2 328/4/2 400/4/2 401/4/2
f 326/4/77 325/4/77 397/4/77 398/4/77
f 324/4/78 332/4/78 404/4/78 396/4/78
f 330/4/79 329/4/79 401/4/79 402/4/79
f 327/4/80 326/4/80 398/4/80 399/4/80
f 323/4/1 324/4/1 396/4/1 395/4/1
f 331/4/81 330/4/81 402/4/81 403/4/81
f 328/4/56 327/4/56 399/4/56 400/4/56
f 325/4/75 323/4/75 395/4/75 397/4/75
f 504/11/75 503/11/75 513/11/75 514/11/75
f 501/11/56 500/11/56 510/11/56 511/11/56
f 498/11/81 497/11/81 507/11/81 508/11/81
f 495/11/1 504/11/1 514/11/1 505/11/1
f 502/11/80 501/11/80 511/11/80 512/11/80
f 499/11/79 498/11/79 508/11/79 509/11/79
f 496/11/78 495/11/78 505/11/78 506/11/78
f 503/11/77 502/11/77 512/11/77 513/11/77
f 500/11/2 499/11/2 509/11/2 510/11/2
f 497/11/76 496/11/76 506/11/76 507/11/76
f 906/4/6 364/4/6 905/4/6 898/4/6
f 888/4/5 366/4/5 363/4/5 897/4/5
f 865/4/2 835/4/2 368/4/2 851/4/2
f 883/4/3 841/4/3 850/4/3 886/4/3
f 851/4/4 368/4/4 371/4/4 855/4/4
f 836/4/5 367/4/5 372/4/5 840/4/5
f 880/4/3 370/4/3 374/4/3 881/4/3
f 837/4/6 369/4/6 373/4/6 841/4/6
f 137/15/5 129/16/5 376/4/5 375/4/5
f 129/16/5 130/4/5 377/4/5 376/4/5
f 130/4/5 131/10/5 378/4/5 377/4/5
f 131/10/5 132/10/5 379/4/5 378/4/5
f 132/10/5 133/17/5 380/4/5 379/4/5
f 133/17/5 134/17/5 381/4/5 380/4/5
f 134/17/5 135/18/5 382/4/5 381/4/5
f 135/18/5 136/17/5 383/4/5 382/4/5
f 136/17/5 138/19/5 384/4/5 383/4/5
f 138/19/5 137/15/5 375/4/5 384/4/5
f 334/4/56 342/13/56 414/13/56 406/4/56
f 129/16/56 137/15/56 385/15/56 386/16/56
f 136/17/81 135/18/81 392/18/81 393/17/81
f 133/17/1 132/10/1 389/10/1 390/17/1
f 130/4/80 129/16/80 386/16/80 387/4/80
f 138/19/79 136/17/79 393/17/79 394/19/79
f 134/17/78 133/17/78 390/17/78 391/17/78
f 131/10/77 130/4/77 387/4/77 388/10/77
f 137/15/2 138/19/2 394/19/2 385/15/2
f 135/18/76 134/17/76 391/17/76 392/18/76
f 334/4/6 333/10/6 395/4/6 396/4/6
f 333/10/6 335/16/6 397/4/6 395/4/6
f 335/16/6 336/4/6 398/4/6 397/4/6
f 336/4/6 337/20/6 399/4/6 398/4/6
f 337/20/6 338/10/6 400/4/6 399/4/6
f 338/10/6 339/14/6 401/4/6 400/4/6
f 339/14/6 340/13/6 402/4/6 401/4/6
f 340/13/6 341/21/6 403/4/6 402/4/6
f 341/21/6 342/13/6 404/4/6 403/4/6
f 342/13/6 334/4/6 396/4/6 404/4/6
f 337/20/76 336/4/76 408/4/76 409/20/76
f 333/10/2 334/4/2 406/4/2 405/10/2
f 341/21/77 340/13/77 412/13/77 413/21/77
f 338/10/78 337/20/78 409/20/78 410/10/78
f 335/16/79 333/10/79 405/10/79 407/16/79
f 342/13/80 341/21/80 413/21/80 414/13/80
f 339/14/1 338/10/1 410/10/1 411/14/1
f 336/4/81 335/16/81 407/16/81 408/4/81
f 414/13/118 413/21/118 387/4/118 386/16/118
f 413/21/119 412/13/119 388/10/119 387/4/119
f 412/13/120 411/14/120 389/10/120 388/10/120
f 411/14/121 410/10/121 390/17/121 389/10/121
f 410/10/122 409/20/122 391/17/122 390/17/122
f 409/20/123 408/4/123 392/18/123 391/17/123
f 408/4/124 407/16/124 393/17/124 392/18/124
f 407/16/125 405/10/125 394/19/125 393/17/125
f 405/10/126 406/4/126 385/15/126 394/19/126
f 406/4/127 414/13/127 386/16/127 385/15/127
f 233/22/128 234/23/128 416/12/128 415/12/128
f 235/24/129 233/22/129 415/12/129 417/12/129
f 236/25/130 235/24/130 417/12/130 418/12/130
f 237/26/131 236/25/131 418/12/131 419/12/131
f 238/27/132 237/26/132 419/12/132 420/12/132
f 239/12/133 238/27/133 420/12/133 421/12/133
f 240/28/134 239/12/134 421/12/134 422/12/134
f 241/12/135 240/28/135 422/12/135 423/12/135
f 242/29/136 241/12/136 423/12/136 424/12/136
f 234/23/137 242/29/137 424/12/137 416/12/137
f 264/27/6 263/12/6 425/12/6 426/12/6
f 263/12/6 265/29/6 427/12/6 425/12/6
f 265/29/6 266/30/6 428/12/6 427/12/6
f 266/30/6 267/12/6 429/12/6 428/12/6
f 267/12/6 268/31/6 430/12/6 429/12/6
f 268/31/6 269/30/6 431/12/6 430/12/6
f 269/30/6 270/12/6 432/12/6 431/12/6
f 270/12/6 271/12/6 433/12/6 432/12/6
f 271/12/6 272/12/6 434/12/6 433/12/6
f 272/12/6 264/27/6 426/12/6 434/12/6
f 449/32/76 439/32/76 438/32/76 448/32/76
f 445/32/2 435/32/2 436/32/2 446/32/2
f 453/32/77 443/32/77 442/32/77 452/32/77
f 450/32/78 440/32/78 439/32/78 449/32/78
f 447/32/79 437/32/79 435/32/79 445/32/79
f 454/32/80 444/32/80 443/32/80 453/32/80
f 451/32/1 441/32/1 440/32/1 450/32/1
f 448/32/81 438/32/81 437/32/81 447/32/81
f 446/32/56 436/32/56 444/32/56 454/32/56
f 452/32/75 442/32/75 441/32/75 451/32/75
f 459/32/80 458/32/80 468/32/80 469/32/80
f 455/32/1 456/32/1 466/32/1 465/32/1
f 463/32/81 462/32/81 472/32/81 473/32/81
f 460/32/56 459/32/56 469/32/56 470/32/56
f 457/32/75 455/32/75 465/32/75 467/32/75
f 464/32/76 463/32/76 473/32/76 474/32/76
f 461/32/2 460/32/2 470/32/2 471/32/2
f 458/32/77 457/32/77 467/32/77 468/32/77
f 456/32/78 464/32/78 474/32/78 466/32/78
f 462/32/79 461/32/79 471/32/79 472/32/79
f 442/32/6 443/32/6 473/32/6 472/32/6
f 436/32/6 435/32/6 465/32/6 466/32/6
f 449/32/5 448/32/5 458/32/5 459/32/5
f 443/32/6 444/32/6 474/32/6 473/32/6
f 435/32/6 437/32/6 467/32/6 465/32/6
f 450/32/5 449/32/5 459/32/5 460/32/5
f 444/32/6 436/32/6 466/32/6 474/32/6
f 437/32/6 438/32/6 468/32/6 467/32/6
f 451/32/5 450/32/5 460/32/5 461/32/5
f 438/32/6 439/32/6 469/32/6 468/32/6
f 452/32/5 451/32/5 461/32/5 462/32/5
f 439/32/6 440/32/6 470/32/6 469/32/6
f 453/32/5 452/32/5 462/32/5 463/32/5
f 445/32/5 446/32/5 456/32/5 455/32/5
f 440/32/6 441/32/6 471/32/6 470/32/6
f 454/32/5 453/32/5 463/32/5 464/32/5
f 447/32/5 445/32/5 455/32/5 457/32/5
f 441/32/6 442/32/6 472/32/6 471/32/6
f 446/32/5 454/32/5 464/32/5 456/32/5
f 448/32/5 447/32/5 457/32/5 458/32/5
f 193/33/6 201/34/6 475/11/6 476/11/6
f 194/34/6 193/33/6 476/11/6 477/11/6
f 195/35/6 194/34/6 477/11/6 478/11/6
f 196/11/6 195/35/6 478/11/6 479/11/6
f 197/36/6 196/11/6 479/11/6 480/11/6
f 198/37/6 197/36/6 480/11/6 481/11/6
f 199/11/6 198/37/6 481/11/6 482/11/6
f 200/34/6 199/11/6 482/11/6 483/11/6
f 202/35/6 200/34/6 483/11/6 484/11/6
f 201/34/6 202/35/6 484/11/6 475/11/6
f 203/38/5 204/11/5 486/11/5 485/11/5
f 204/11/5 205/11/5 487/11/5 486/11/5
f 205/11/5 206/34/5 488/11/5 487/11/5
f 206/34/5 207/39/5 489/11/5 488/11/5
f 207/39/5 208/11/5 490/11/5 489/11/5
f 208/11/5 209/40/5 491/11/5 490/11/5
f 209/40/5 210/41/5 492/11/5 491/11/5
f 210/41/5 211/42/5 493/11/5 492/11/5
f 211/42/5 212/34/5 494/11/5 493/11/5
f 212/34/5 203/38/5 485/11/5 494/11/5
f 343/11/6 351/43/6 495/11/6 496/11/6
f 344/34/6 343/11/6 496/11/6 497/11/6
f 345/39/6 344/34/6 497/11/6 498/11/6
f 346/11/6 345/39/6 498/11/6 499/11/6
f 347/36/6 346/11/6 499/11/6 500/11/6
f 348/37/6 347/36/6 500/11/6 501/11/6
f 349/11/6 348/37/6 501/11/6 502/11/6
f 350/11/6 349/11/6 502/11/6 503/11/6
f 352/34/6 350/11/6 503/11/6 504/11/6
f 351/43/6 352/34/6 504/11/6 495/11/6
f 353/38/5 354/11/5 506/11/5 505/11/5
f 354/11/5 355/11/5 507/11/5 506/11/5
f 355/11/5 356/34/5 508/11/5 507/11/5
f 356/34/5 357/39/5 509/11/5 508/11/5
f 357/39/5 358/11/5 510/11/5 509/11/5
f 358/11/5 359/34/5 511/11/5 510/11/5
f 359/34/5 360/41/5 512/11/5 511/11/5
f 360/41/5 361/33/5 513/11/5 512/11/5
f 361/33/5 362/11/5 514/11/5 513/11/5
f 362/11/5 353/38/5 505/11/5 514/11/5
f 726/44/56 725/45/56 611/45/56 610/44/56
f 636/46/76 635/46/76 536/46/76 537/46/76
f 529/46/138 599/47/138 648/47/138 658/46/138
f 633/46/139 632/46/139 642/46/139 643/46/139
f 595/46/140 604/46/140 653/46/140 654/46/140
f 627/46/141 626/46/141 636/46/141 637/46/141
f 527/46/142 597/48/142 646/48/142 656/46/142
f 631/46/143 630/46/143 640/46/143 641/46/143
f 602/49/144 532/46/144 661/46/144 651/49/144
f 625/46/145 634/46/145 644/46/145 635/46/145
f 603/49/146 602/49/146 651/49/146 652/49/146
f 629/46/147 628/46/147 638/46/147 639/46/147
f 541/46/148 540/46/148 550/46/148 551/46/148
f 643/46/75 642/46/75 543/46/75 544/46/75
f 640/46/56 639/46/56 540/46/56 541/46/56
f 637/46/81 636/46/81 537/46/81 538/46/81
f 644/46/1 643/46/1 544/46/1 535/46/1
f 641/46/80 640/46/80 541/46/80 542/46/80
f 638/46/79 637/46/79 538/46/79 539/46/79
f 635/46/78 644/46/78 535/46/78 536/46/78
f 642/46/77 641/46/77 542/46/77 543/46/77
f 639/46/2 638/46/2 539/46/2 540/46/2
f 548/46/81 547/46/81 557/46/81 558/46/81
f 538/46/149 537/46/149 547/46/149 548/46/149
f 535/46/150 544/46/150 554/46/150 545/46/150
f 542/46/151 541/46/151 551/46/151 552/46/151
f 539/46/152 538/46/152 548/46/152 549/46/152
f 536/46/153 535/46/153 545/46/153 546/46/153
f 543/46/154 542/46/154 552/46/154 553/46/154
f 540/46/155 539/46/155 549/46/155 550/46/155
f 537/46/156 536/46/156 546/46/156 547/46/156
f 544/46/157 543/46/157 553/46/157 554/46/157
f 555/46/158 564/46/158 574/46/158 565/46/158
f 545/46/1 554/46/1 564/46/1 555/46/1
f 552/46/80 551/46/80 561/46/80 562/46/80
f 549/46/79 548/46/79 558/46/79 559/46/79
f 546/46/78 545/46/78 555/46/78 556/46/78
f 553/46/77 552/46/77 562/46/77 563/46/77
f 550/46/2 549/46/2 559/46/2 560/46/2
f 547/46/76 546/46/76 556/46/76 557/46/76
f 554/46/75 553/46/75 563/46/75 564/46/75
f 551/46/56 550/46/56 560/46/56 561/46/56
f 565/46/5 574/46/5 573/46/5 572/46/5 571/46/5 570/46/5 569/46/5 568/46/5 567/46/5 566/46/5
f 562/46/159 561/46/159 571/46/159 572/46/159
f 559/46/160 558/46/160 568/46/160 569/46/160
f 556/46/161 555/46/161 565/46/161 566/46/161
f 563/46/162 562/46/162 572/46/162 573/46/162
f 560/46/163 559/46/163 569/46/163 570/46/163
f 557/46/164 556/46/164 566/46/164 567/46/164
f 564/46/165 563/46/165 573/46/165 574/46/165
f 561/46/166 560/46/166 570/46/166 571/46/166
f 558/46/167 557/46/167 567/46/167 568/46/167
f 575/50/6 576/50/6 577/50/6 578/50/6 579/50/6 580/50/6 581/50/6 582/50/6 583/50/6 584/50/6
f 585/50/5 594/50/5 593/50/5 592/50/5 591/50/5 590/50/5 589/50/5 588/50/5 587/50/5 586/50/5
f 579/50/79 578/50/79 588/50/79 589/50/79
f 576/50/78 575/50/78 585/50/78 586/50/78
f 583/50/77 582/50/77 592/50/77 593/50/77
f 580/50/2 579/50/2 589/50/2 590/50/2
f 577/50/76 576/50/76 586/50/76 587/50/76
f 584/50/75 583/50/75 593/50/75 594/50/75
f 581/50/56 580/50/56 590/50/56 591/50/56
f 578/50/81 577/50/81 587/50/81 588/50/81
f 575/50/1 584/50/1 594/50/1 585/50/1
f 582/50/80 581/50/80 591/50/80 592/50/80
f 515/51/6 523/46/6 634/46/6 625/46/6
f 516/46/6 515/51/6 625/46/6 626/46/6
f 517/47/6 516/46/6 626/46/6 627/46/6
f 518/51/6 517/47/6 627/46/6 628/46/6
f 519/49/6 518/51/6 628/46/6 629/46/6
f 520/46/6 519/49/6 629/46/6 630/46/6
f 521/51/6 520/46/6 630/46/6 631/46/6
f 522/46/6 521/51/6 631/46/6 632/46/6
f 524/48/6 522/46/6 632/46/6 633/46/6
f 523/46/6 524/48/6 633/46/6 634/46/6
f 607/45/168 608/45/168 618/45/168 617/45/168
f 728/45/81 727/45/81 608/45/81 607/45/81
f 730/45/1 729/45/1 605/45/1 614/45/1
f 725/45/80 731/52/80 612/52/80 611/45/80
f 727/45/79 732/52/79 609/52/79 608/45/79
f 729/45/78 733/52/78 606/52/78 605/45/78
f 731/52/77 734/45/77 613/45/77 612/52/77
f 732/52/2 726/44/2 610/44/2 609/52/2
f 733/52/76 728/45/76 607/45/76 606/52/76
f 734/45/75 730/45/75 614/45/75 613/45/75
f 615/45/6 616/52/6 617/45/6 618/45/6 619/52/6 620/44/6 621/45/6 622/52/6 623/45/6 624/45/6
f 614/45/169 605/45/169 615/45/169 624/45/169
f 611/45/170 612/52/170 622/52/170 621/45/170
f 608/45/171 609/52/171 619/52/171 618/45/171
f 605/45/172 606/52/172 616/52/172 615/45/172
f 612/52/173 613/45/173 623/45/173 622/52/173
f 609/52/174 610/44/174 620/44/174 619/52/174
f 606/52/175 607/45/175 617/45/175 616/52/175
f 613/45/176 614/45/176 624/45/176 623/45/176
f 610/44/177 611/45/177 621/45/177 620/44/177
f 596/46/178 597/48/178 626/46/178 625/46/178
f 598/46/179 599/47/179 628/46/179 627/46/179
f 600/49/180 601/53/180 630/46/180 629/46/180
f 602/49/181 603/49/181 632/46/181 631/46/181
f 604/46/182 595/46/182 634/46/182 633/46/182
f 527/46/178 526/46/178 635/46/178 636/46/178
f 529/46/179 528/46/179 637/46/179 638/46/179
f 531/46/180 530/46/180 639/46/180 640/46/180
f 533/46/181 532/46/181 641/46/181 642/46/181
f 525/46/182 534/46/182 643/46/182 644/46/182
f 526/46/178 596/46/178 625/46/178 635/46/178
f 597/48/178 527/46/178 636/46/178 626/46/178
f 603/49/181 533/46/181 642/46/181 632/46/181
f 534/46/182 604/46/182 633/46/182 643/46/182
f 530/46/180 600/49/180 629/46/180 639/46/180
f 601/53/180 531/46/180 640/46/180 630/46/180
f 528/46/179 598/46/179 627/46/179 637/46/179
f 595/46/182 525/46/182 644/46/182 634/46/182
f 532/46/181 602/49/181 631/46/181 641/46/181
f 599/47/179 529/46/179 638/46/179 628/46/179
f 646/48/183 645/46/183 655/46/183 656/46/183
f 650/53/184 649/49/184 659/46/184 660/46/184
f 654/46/185 653/46/185 663/46/185 664/46/185
f 648/47/186 647/46/186 657/46/186 658/46/186
f 652/49/187 651/49/187 661/46/187 662/46/187
f 533/46/188 603/49/188 652/49/188 662/46/188
f 526/46/189 527/46/189 656/46/189 655/46/189
f 604/46/190 534/46/190 663/46/190 653/46/190
f 528/46/191 529/46/191 658/46/191 657/46/191
f 600/49/192 530/46/192 659/46/192 649/49/192
f 530/46/193 531/46/193 660/46/193 659/46/193
f 597/48/194 596/46/194 645/46/194 646/48/194
f 531/46/195 601/53/195 650/53/195 660/46/195
f 532/46/196 533/46/196 662/46/196 661/46/196
f 599/47/197 598/46/197 647/46/197 648/47/197
f 598/46/198 528/46/198 657/46/198 647/46/198
f 534/46/199 525/46/199 664/46/199 663/46/199
f 601/53/200 600/49/200 649/49/200 650/53/200
f 525/46/201 595/46/201 654/46/201 664/46/201
f 596/46/202 526/46/202 655/46/202 645/46/202
f 671/5/59 684/5/59 683/5/59 672/5/59
f 673/5/60 680/5/60 679/5/60 674/5/60
f 677/5/61 682/5/61 681/5/61 678/5/61
f 684/5/62 676/5/62 675/5/62 683/5/62
f 682/5/63 670/5/63 669/5/63 681/5/63
f 680/5/2 677/5/2 678/5/2 679/5/2
f 676/5/64 673/5/64 674/5/64 675/5/64
f 665/5/1 671/5/1 672/5/1 666/5/1
f 670/5/65 668/5/65 667/5/65 669/5/65
f 668/5/66 665/5/66 666/5/66 667/5/66
f 683/5/3 675/5/3 674/5/3 679/5/3 678/5/3 681/5/3 669/5/3 667/5/3 666/5/3 672/5/3
f 684/5/4 671/5/4 665/5/4 668/5/4 670/5/4 682/5/4 677/5/4 680/5/4 673/5/4 676/5/4
f 691/5/59 704/5/59 703/5/59 692/5/59
f 693/5/60 700/5/60 699/5/60 694/5/60
f 697/5/61 702/5/61 701/5/61 698/5/61
f 704/5/62 696/5/62 695/5/62 703/5/62
f 702/5/63 690/5/63 689/5/63 701/5/63
f 700/5/2 697/5/2 698/5/2 699/5/2
f 696/5/64 693/5/64 694/5/64 695/5/64
f 685/5/1 691/5/1 692/5/1 686/5/1
f 690/5/65 688/5/65 687/5/65 689/5/65
f 688/5/66 685/5/66 686/5/66 687/5/66
f 703/5/3 695/5/3 694/5/3 699/5/3 698/5/3 701/5/3 689/5/3 687/5/3 686/5/3 692/5/3
f 704/5/4 691/5/4 685/5/4 688/5/4 690/5/4 702/5/4 697/5/4 700/5/4 693/5/4 696/5/4
f 713/54/5 705/3/5 706/3/5 716/55/5
f 717/54/6 720/55/6 712/3/6 709/3/6
f 706/3/2 705/3/2 709/3/2 712/3/2
f 714/55/4 708/3/4 710/3/4 718/55/4
f 708/3/1 707/3/1 711/3/1 710/3/1
f 716/55/3 706/3/3 712/3/3 720/55/3
f 707/3/3 715/54/3 719/54/3 711/3/3
f 715/54/3 716/55/3 720/55/3 719/54/3
f 705/3/4 713/54/4 717/54/4 709/3/4
f 713/54/4 714/55/4 718/55/4 717/54/4
f 710/3/6 711/3/6 719/54/6 718/55/6
f 719/54/3 720/55/3 724/55/3 723/54/3
f 708/3/5 714/55/5 715/54/5 707/3/5
f 714/55/5 713/54/5 716/55/5 715/54/5
f 722/55/6 723/54/6 724/55/6 721/54/6
f 717/54/4 718/55/4 722/55/4 721/54/4
f 718/55/203 719/54/203 723/54/203 722/55/203
f 720/55/204 717/54/204 721/54/204 724/55/204
f 744/56/75 737/56/75 730/56/75 734/56/75
f 743/56/76 736/56/76 728/56/76 733/56/76
f 742/56/2 735/57/2 726/57/2 732/56/2
f 741/56/77 744/56/77 734/56/77 731/56/77
f 740/56/78 743/56/78 733/56/78 729/56/78
f 739/56/79 742/56/79 732/56/79 727/56/79
f 738/56/80 741/56/80 731/56/80 725/56/80
f 737/56/1 740/56/1 729/56/1 730/56/1
f 736/56/81 739/56/81 727/56/81 728/56/81
f 735/57/56 738/56/56 725/56/56 726/57/56
f 745/44/56 748/45/56 738/45/56 735/44/56
f 746/45/81 749/58/81 739/45/81 736/45/81
f 747/45/1 750/45/1 740/45/1 737/45/1
f 748/45/80 751/52/80 741/52/80 738/45/80
f 749/58/79 752/52/79 742/52/79 739/45/79
f 750/45/78 753/52/78 743/52/78 740/45/78
f 751/52/77 754/45/77 744/45/77 741/52/77
f 752/52/2 745/44/2 735/44/2 742/52/2
f 753/52/76 746/45/76 736/45/76 743/52/76
f 754/45/75 747/45/75 737/45/75 744/45/75
f 522/59/75 524/59/75 747/59/75 754/59/75
f 515/59/76 516/59/76 746/59/76 753/59/76
f 518/59/2 519/60/2 745/60/2 752/59/2
f 521/59/77 522/59/77 754/59/77 751/59/77
f 523/59/78 515/59/78 753/59/78 750/59/78
f 517/59/79 518/59/79 752/59/79 749/61/79
f 520/59/80 521/59/80 751/59/80 748/59/80
f 524/59/1 523/59/1 750/59/1 747/59/1
f 516/59/81 517/59/81 749/61/81 746/59/81
f 519/60/56 520/59/56 748/59/56 745/60/56
f 758/46/77 768/46/77 767/46/77 757/46/77
f 755/46/2 765/46/2 774/46/2 764/46/2
f 762/46/76 772/46/76 771/46/76 761/46/76
f 759/46/75 769/46/75 768/46/75 758/46/75
f 756/46/56 766/46/56 765/46/56 755/46/56
f 763/46/81 773/46/81 772/46/81 762/46/81
f 760/46/1 770/46/1 769/46/1 759/46/1
f 757/46/80 767/46/80 766/46/80 756/46/80
f 764/46/79 774/46/79 773/46/79 763/46/79
f 761/46/78 771/46/78 770/46/78 760/46/78
f 778/46/81 777/46/81 787/46/81 788/46/81
f 775/46/1 784/46/1 794/46/1 785/46/1
f 782/46/80 781/46/80 791/46/80 792/46/80
f 779/46/79 778/46/79 788/46/79 789/46/79
f 776/46/78 775/46/78 785/46/78 786/46/78
f 783/46/77 782/46/77 792/46/77 793/46/77
f 780/46/2 779/46/2 789/46/2 790/46/2
f 777/46/76 776/46/76 786/46/76 787/46/76
f 784/46/75 783/46/75 793/46/75 794/46/75
f 781/46/56 780/46/56 790/46/56 791/46/56
f 757/46/205 756/46/205 776/46/205 777/46/205
f 771/46/206 772/46/206 792/46/206 791/46/206
f 755/46/207 764/46/207 784/46/207 775/46/207
f 758/46/208 757/46/208 777/46/208 778/46/208
f 772/46/209 773/46/209 793/46/209 792/46/209
f 765/46/210 766/46/210 786/46/210 785/46/210
f 759/46/211 758/46/211 778/46/211 779/46/211
f 773/46/212 774/46/212 794/46/212 793/46/212
f 766/46/213 767/46/213 787/46/213 786/46/213
f 760/46/214 759/46/214 779/46/214 780/46/214
f 774/46/215 765/46/215 785/46/215 794/46/215
f 767/46/216 768/46/216 788/46/216 787/46/216
f 761/46/217 760/46/217 780/46/217 781/46/217
f 768/46/218 769/46/218 789/46/218 788/46/218
f 762/46/219 761/46/219 781/46/219 782/46/219
f 769/46/220 770/46/220 790/46/220 789/46/220
f 763/46/221 762/46/221 782/46/221 783/46/221
f 756/46/222 755/46/222 775/46/222 776/46/222
f 770/46/223 771/46/223 791/46/223 790/46/223
f 764/46/224 763/46/224 783/46/224 784/46/224
f 817/11/76 816/11/76 826/11/76 827/11/76
f 820/11/2 819/11/2 829/11/2 830/11/2
f 823/11/77 822/11/77 832/11/77 833/11/77
f 816/11/78 815/11/78 825/11/78 826/11/78
f 819/11/79 818/11/79 828/11/79 829/11/79
f 822/11/80 821/11/80 831/11/80 832/11/80
f 815/11/1 824/11/1 834/11/1 825/11/1
f 818/11/81 817/11/81 827/11/81 828/11/81
f 821/11/56 820/11/56 830/11/56 831/11/56
f 824/11/75 823/11/75 833/11/75 834/11/75
f 814/11/6 806/43/6 815/11/6 816/11/6
f 813/34/6 814/11/6 816/11/6 817/11/6
f 812/39/6 813/34/6 817/11/6 818/11/6
f 811/11/6 812/39/6 818/11/6 819/11/6
f 810/36/6 811/11/6 819/11/6 820/11/6
f 809/37/6 810/36/6 820/11/6 821/11/6
f 808/11/6 809/37/6 821/11/6 822/11/6
f 807/11/6 808/11/6 822/11/6 823/11/6
f 805/34/6 807/11/6 823/11/6 824/11/6
f 806/43/6 805/34/6 824/11/6 815/11/6
f 804/38/5 803/11/5 826/11/5 825/11/5
f 803/11/5 802/11/5 827/11/5 826/11/5
f 802/11/5 801/34/5 828/11/5 827/11/5
f 801/34/5 800/39/5 829/11/5 828/11/5
f 800/39/5 799/11/5 830/11/5 829/11/5
f 799/11/5 798/34/5 831/11/5 830/11/5
f 798/34/5 797/41/5 832/11/5 831/11/5
f 797/41/5 796/33/5 833/11/5 832/11/5
f 796/33/5 795/11/5 834/11/5 833/11/5
f 795/11/5 804/38/5 825/11/5 834/11/5
f 370/4/6 838/4/6 842/4/6 374/4/6
f 838/4/6 837/4/6 841/4/6 842/4/6
f 368/4/5 835/4/5 839/4/5 371/4/5
f 835/4/5 836/4/5 840/4/5 839/4/5
f 371/4/5 839/4/5 849/4/5 847/4/5
f 860/4/1 862/4/1 839/4/1 840/4/1
f 854/4/2 367/4/2 836/4/2 863/4/2
f 863/4/3 836/4/3 1144/4/3 1149/4/3
f 874/4/225 867/4/225 847/4/225 849/4/225
f 870/4/225 872/4/225 843/4/225 844/4/225
f 855/4/4 371/4/4 847/4/4 867/4/4
f 840/4/5 372/4/5 844/4/5 843/4/5
f 860/4/4 840/4/4 843/4/4 872/4/4
f 881/4/3 374/4/3 846/4/3 884/4/3
f 374/4/6 842/4/6 845/4/6 846/4/6
f 841/4/6 373/4/6 848/4/6 850/4/6
f 372/4/3 858/4/3 870/4/3 844/4/3
f 858/4/3 857/4/3 869/4/3 870/4/3
f 882/4/4 859/4/4 871/4/4 885/4/4
f 859/4/4 860/4/4 872/4/4 871/4/4
f 876/4/4 856/4/4 868/4/4 879/4/4
f 856/4/4 855/4/4 867/4/4 868/4/4
f 884/4/226 885/4/226 871/4/226 869/4/226
f 869/4/1 871/4/1 872/4/1 870/4/1
f 886/4/226 879/4/226 868/4/226 873/4/226
f 873/4/1 868/4/1 867/4/1 874/4/1
f 838/4/3 877/4/3 1147/4/3 1146/4/3
f 906/4/6 889/4/6 1156/4/6 1155/4/6
f 880/4/2 853/4/2 864/4/2 877/4/2
f 853/4/2 854/4/2 863/4/2 864/4/2
f 882/4/1 883/4/1 861/4/1 859/4/1
f 859/4/1 861/4/1 862/4/1 860/4/1
f 367/4/3 854/4/3 858/4/3 372/4/3
f 854/4/3 853/4/3 857/4/3 858/4/3
f 875/4/4 852/4/4 856/4/4 876/4/4
f 852/4/4 851/4/4 855/4/4 856/4/4
f 839/4/3 862/4/3 874/4/3 849/4/3
f 862/4/3 861/4/3 873/4/3 874/4/3
f 878/4/2 866/4/2 852/4/2 875/4/2
f 866/4/2 865/4/2 851/4/2 852/4/2
f 837/4/2 878/4/2 875/4/2 369/4/2
f 369/4/4 875/4/4 876/4/4 373/4/4
f 842/4/1 841/4/1 883/4/1 882/4/1
f 370/4/2 880/4/2 877/4/2 838/4/2
f 837/4/6 838/4/6 1146/4/6 1145/4/6
f 850/4/227 848/4/227 879/4/227 886/4/227
f 846/4/227 845/4/227 885/4/227 884/4/227
f 373/4/4 876/4/4 879/4/4 848/4/4
f 842/4/4 882/4/4 885/4/4 845/4/4
f 857/4/3 881/4/3 884/4/3 869/4/3
f 853/4/3 880/4/3 881/4/3 857/4/3
f 861/4/3 883/4/3 886/4/3 873/4/3
f 894/4/6 889/4/6 890/4/6 896/4/6
f 889/4/6 906/4/6 898/4/6 890/4/6
f 365/4/5 887/4/5 899/4/5 895/4/5
f 887/4/5 888/4/5 897/4/5 899/4/5
f 895/4/5 899/4/5 892/4/5 900/4/5
f 897/4/5 363/4/5 891/4/5 904/4/5
f 896/4/6 890/4/6 903/4/6 902/4/6
f 898/4/6 905/4/6 901/4/6 893/4/6
f 363/4/3 896/4/3 902/4/3 891/4/3
f 890/17/4 897/16/4 904/16/4 903/4/4
f 905/16/4 895/4/4 900/16/4 901/4/4
f 902/4/1 903/4/1 904/16/1 891/4/1
f 893/14/1 901/4/1 900/16/1 892/4/1
f 865/4/4 866/4/4 1152/4/4 1151/4/4
f 894/16/2 366/16/2 888/4/2 889/16/2
f 890/17/1 898/17/1 899/4/1 897/16/1
f 366/16/3 894/16/3 896/4/3 363/4/3
f 364/17/4 365/4/4 895/4/4 905/16/4
f 899/4/3 898/17/3 893/14/3 892/4/3
f 906/4/2 887/4/2 365/4/2 364/17/2
f 924/17/5 923/17/5 910/4/5 908/16/5
f 926/17/6 913/16/6 912/4/6 925/17/6
f 908/16/3 913/16/3 926/17/3 924/17/3
f 910/4/2 912/4/2 913/16/2 908/16/2
f 926/17/228 918/17/228 916/17/228 924/17/228
f 923/17/4 925/17/4 912/4/4 910/4/4
f 918/17/229 934/17/229 932/17/229 916/17/229
f 921/17/230 919/4/230 930/4/230 929/16/230
f 922/62/2 920/62/2 919/4/2 921/17/2
f 923/17/231 915/17/231 917/17/231 925/17/231
f 932/17/1 934/17/1 933/17/1 931/17/1
f 928/18/232 927/13/232 920/62/232 922/62/232
f 915/17/233 931/17/233 933/17/233 917/17/233
f 914/63/234 907/4/234 927/13/234 928/18/234
f 909/17/5 923/17/5 924/17/5 907/4/5
f 914/63/6 926/17/6 925/17/6 911/17/6
f 907/4/5 924/17/5 916/17/5 927/13/5
f 928/18/6 918/17/6 926/17/6 914/63/6
f 911/17/6 925/17/6 917/17/6 929/16/6
f 930/4/5 915/17/5 923/17/5 909/17/5
f 920/62/5 932/17/5 931/17/5 919/4/5
f 921/17/6 933/17/6 934/17/6 922/62/6
f 927/13/5 916/17/5 932/17/5 920/62/5
f 922/62/6 934/17/6 918/17/6 928/18/6
f 919/4/5 931/17/5 915/17/5 930/4/5
f 929/16/6 917/17/6 933/17/6 921/17/6
f 929/16/235 930/4/235 909/17/235 911/17/235
f 911/17/1 909/17/1 907/4/1 914/63/1
f 937/17/2 938/63/2 935/4/2 936/17/2
f 942/17/1 941/17/1 939/4/1 940/63/1
f 936/17/236 941/17/236 942/17/236 937/17/236
f 935/4/5 939/4/5 941/17/5 936/17/5
f 937/17/6 942/17/6 940/63/6 938/63/6
f 938/63/237 940/63/237 939/4/237 935/4/237
f 960/17/5 959/17/5 946/4/5 944/16/5
f 962/17/6 949/16/6 948/4/6 961/17/6
f 944/16/3 949/16/3 962/17/238 960/17/238
f 946/4/2 948/4/2 949/16/2 944/16/2
f 972/17/239 954/17/239 952/17/239 971/17/239
f 959/17/240 961/17/240 948/4/4 946/4/4
f 954/17/229 970/17/229 968/17/229 952/17/229
f 957/17/230 955/4/230 966/4/230 965/16/230
f 958/62/2 956/62/2 955/4/2 957/17/2
f 976/17/241 951/17/241 953/17/241 975/17/241
f 968/17/1 970/17/1 969/17/1 967/17/1
f 964/18/232 963/13/232 956/62/232 958/62/232
f 951/17/233 967/17/233 969/17/233 953/17/233
f 974/17/242 973/4/242 963/13/242 964/18/242
f 945/17/5 959/17/5 960/17/5 943/4/5
f 950/63/6 962/17/6 961/17/6 947/17/6
f 973/4/5 971/17/5 952/17/5 963/13/5
f 974/17/6 972/17/6 962/17/6 950/63/6
f 977/4/6 975/17/6 953/17/6 965/16/6
f 978/17/5 976/17/5 959/17/5 945/17/5
f 956/62/5 968/17/5 967/17/5 955/4/5
f 957/17/6 969/17/6 970/17/6 958/62/6
f 963/13/5 952/17/5 968/17/5 956/62/5
f 958/62/6 970/17/6 954/17/6 964/18/6
f 955/4/5 967/17/5 951/17/5 966/4/5
f 965/16/6 953/17/6 969/17/6 957/17/6
f 977/4/243 978/17/243 945/17/243 947/17/243
f 947/17/1 945/17/1 943/4/1 950/63/1
f 964/18/6 954/17/6 972/17/6 974/17/6
f 943/4/5 960/17/5 971/17/5 973/4/5
f 950/63/244 943/4/244 973/4/244 974/17/244
f 962/17/238 972/17/245 971/17/245 960/17/238
f 965/16/246 966/4/246 978/17/246 977/4/246
f 966/4/5 951/17/5 976/17/5 978/17/5
f 947/17/6 961/17/6 975/17/6 977/4/6
f 959/17/240 976/17/247 975/17/247 961/17/240
f 989/4/6 987/16/6 980/4/6 981/17/6
f 993/4/5 983/17/5 984/4/5 991/16/5
f 987/16/2 991/16/2 984/4/2 980/4/2
f 982/17/248 996/17/248 998/17/248 986/17/248
f 980/4/4 984/4/4 983/17/4 981/17/4
f 982/17/3 986/17/3 985/16/3 979/16/3
f 994/17/249 997/17/249 995/17/249 990/17/249
f 989/4/1 993/4/1 994/17/1 990/17/1
f 979/16/2 985/16/2 992/16/2 988/16/2
f 988/16/2 992/16/2 991/16/2 987/16/2
f 986/17/5 994/17/5 992/16/5 985/16/5
f 994/17/5 993/4/5 991/16/5 992/16/5
f 982/17/6 979/16/6 988/16/6 990/17/6
f 990/17/6 988/16/6 987/16/6 989/4/6
f 995/17/1 997/17/1 998/17/1 996/17/1
f 1000/17/1 999/17/1 1002/4/1 1001/4/1
f 986/17/5 998/17/5 997/17/5 994/17/5
f 990/17/6 995/17/6 996/17/6 982/17/6
f 983/17/249 999/17/249 1000/17/249 981/17/249
f 989/4/248 1001/4/248 1002/4/248 993/4/248
f 993/4/5 1002/4/5 999/17/5 983/17/5
f 981/17/6 1000/17/6 1001/4/6 989/4/6
f 1012/64/59 1011/64/59 1021/64/59 1022/64/59
f 1009/64/60 1008/64/60 1018/64/60 1019/64/60
f 1006/64/63 1005/64/63 1015/64/63 1016/64/63
f 1003/64/1 1012/64/1 1022/64/1 1013/64/1
f 1010/64/64 1009/64/64 1019/64/64 1020/64/64
f 1007/64/61 1006/64/61 1016/64/61 1017/64/61
f 1004/64/66 1003/64/66 1013/64/66 1014/64/66
f 1011/64/62 1010/64/62 1020/64/62 1021/64/62
f 1008/64/2 1007/64/2 1017/64/2 1018/64/2
f 1005/64/65 1004/64/65 1014/64/65 1015/64/65
f 1003/64/4 1004/64/4 1005/64/4 1006/64/4 1007/64/4 1008/64/4 1009/64/4 1010/64/4 1011/64/4 1012/64/4
f 1013/64/3 1022/64/3 1021/64/3 1020/64/3 1019/64/3 1018/64/3 1017/64/3 1016/64/3 1015/64/3 1014/64/3
f 1037/32/76 1027/32/76 1026/32/76 1036/32/76
f 1033/32/2 1023/32/2 1024/32/2 1034/32/2
f 1041/32/77 1031/32/77 1030/32/77 1040/32/77
f 1038/32/78 1028/32/78 1027/32/78 1037/32/78
f 1035/32/79 1025/32/79 1023/32/79 1033/32/79
f 1042/32/80 1032/32/80 1031/32/80 1041/32/80
f 1039/32/1 1029/32/1 1028/32/1 1038/32/1
f 1036/32/81 1026/32/81 1025/32/81 1035/32/81
f 1034/32/56 1024/32/56 1032/32/56 1042/32/56
f 1040/32/75 1030/32/75 1029/32/75 1039/32/75
f 1047/32/80 1046/32/80 1056/32/80 1057/32/80
f 1043/32/1 1044/32/1 1054/32/1 1053/32/1
f 1051/32/81 1050/32/81 1060/32/81 1061/32/81
f 1048/32/56 1047/32/56 1057/32/56 1058/32/56
f 1045/32/75 1043/32/75 1053/32/75 1055/32/75
f 1052/32/76 1051/32/76 1061/32/76 1062/32/76
f 1049/32/2 1048/32/2 1058/32/2 1059/32/2
f 1046/32/77 1045/32/77 1055/32/77 1056/32/77
f 1044/32/78 1052/32/78 1062/32/78 1054/32/78
f 1050/32/79 1049/32/79 1059/32/79 1060/32/79
f 1030/32/6 1031/32/6 1061/32/6 1060/32/6
f 1024/32/6 1023/32/6 1053/32/6 1054/32/6
f 1037/32/5 1036/32/5 1046/32/5 1047/32/5
f 1031/32/6 1032/32/6 1062/32/6 1061/32/6
f 1023/32/6 1025/32/6 1055/32/6 1053/32/6
f 1038/32/5 1037/32/5 1047/32/5 1048/32/5
f 1032/32/6 1024/32/6 1054/32/6 1062/32/6
f 1025/32/6 1026/32/6 1056/32/6 1055/32/6
f 1039/32/5 1038/32/5 1048/32/5 1049/32/5
f 1026/32/6 1027/32/6 1057/32/6 1056/32/6
f 1040/32/5 1039/32/5 1049/32/5 1050/32/5
f 1027/32/6 1028/32/6 1058/32/6 1057/32/6
f 1041/32/5 1040/32/5 1050/32/5 1051/32/5
f 1033/32/5 1034/32/5 1044/32/5 1043/32/5
f 1028/32/6 1029/32/6 1059/32/6 1058/32/6
f 1042/32/5 1041/32/5 1051/32/5 1052/32/5
f 1035/32/5 1033/32/5 1043/32/5 1045/32/5
f 1029/32/6 1030/32/6 1060/32/6 1059/32/6
f 1034/32/5 1042/32/5 1052/32/5 1044/32/5
f 1036/32/5 1035/32/5 1045/32/5 1046/32/5
f 1077/32/76 1067/32/76 1066/32/76 1076/32/76
f 1073/32/2 1063/32/2 1064/32/2 1074/32/2
f 1081/32/77 1071/32/77 1070/32/77 1080/32/77
f 1078/32/78 1068/32/78 1067/32/78 1077/32/78
f 1075/32/79 1065/32/79 1063/32/79 1073/32/79
f 1082/32/80 1072/32/80 1071/32/80 1081/32/80
f 1079/32/1 1069/32/1 1068/32/1 1078/32/1
f 1076/32/81 1066/32/81 1065/32/81 1075/32/81
f 1074/32/56 1064/32/56 1072/32/56 1082/32/56
f 1080/32/75 1070/32/75 1069/32/75 1079/32/75
f 1087/32/80 1086/32/80 1096/32/80 1097/32/80
f 1083/32/1 1084/32/1 1094/32/1 1093/32/1
f 1091/32/81 1090/32/81 1100/32/81 1101/32/81
f 1088/32/56 1087/32/56 1097/32/56 1098/32/56
f 1085/32/75 1083/32/75 1093/32/75 1095/32/75
f 1092/32/76 1091/32/76 1101/32/76 1102/32/76
f 1089/32/2 1088/32/2 1098/32/2 1099/32/2
f 1086/32/77 1085/32/77 1095/32/77 1096/32/77
f 1084/32/78 1092/32/78 1102/32/78 1094/32/78
f 1090/32/79 1089/32/79 1099/32/79 1100/32/79
f 1070/32/6 1071/32/6 1101/32/6 1100/32/6
f 1064/32/6 1063/32/6 1093/32/6 1094/32/6
f 1077/32/5 1076/32/5 1086/32/5 1087/32/5
f 1071/32/6 1072/32/6 1102/32/6 1101/32/6
f 1063/32/6 1065/32/6 1095/32/6 1093/32/6
f 1078/32/5 1077/32/5 1087/32/5 1088/32/5
f 1072/32/6 1064/32/6 1094/32/6 1102/32/6
f 1065/32/6 1066/32/6 1096/32/6 1095/32/6
f 1079/32/5 1078/32/5 1088/32/5 1089/32/5
f 1066/32/6 1067/32/6 1097/32/6 1096/32/6
f 1080/32/5 1079/32/5 1089/32/5 1090/32/5
f 1067/32/6 1068/32/6 1098/32/6 1097/32/6
f 1081/32/5 1080/32/5 1090/32/5 1091/32/5
f 1073/32/5 1074/32/5 1084/32/5 1083/32/5
f 1068/32/6 1069/32/6 1099/32/6 1098/32/6
f 1082/32/5 1081/32/5 1091/32/5 1092/32/5
f 1075/32/5 1073/32/5 1083/32/5 1085/32/5
f 1069/32/6 1070/32/6 1100/32/6 1099/32/6
f 1074/32/5 1082/32/5 1092/32/5 1084/32/5
f 1076/32/5 1075/32/5 1085/32/5 1086/32/5
f 1125/11/76 1124/11/76 1134/11/76 1135/11/76
f 1128/11/2 1127/11/2 1137/11/2 1138/11/2
f 1131/11/77 1130/11/77 1140/11/77 1141/11/77
f 1124/11/78 1123/11/78 1133/11/78 1134/11/78
f 1127/11/79 1126/11/79 1136/11/79 1137/11/79
f 1130/11/80 1129/11/80 1139/11/80 1140/11/80
f 1123/11/1 1132/11/1 1142/11/1 1133/11/1
f 1126/11/81 1125/11/81 1135/11/81 1136/11/81
f 1129/11/56 1128/11/56 1138/11/56 1139/11/56
f 1132/11/75 1131/11/75 1141/11/75 1142/11/75
f 1122/11/6 1114/43/6 1123/11/6 1124/11/6
f 1121/34/6 1122/11/6 1124/11/6 1125/11/6
f 1120/39/6 1121/34/6 1125/11/6 1126/11/6
f 1119/11/6 1120/39/6 1126/11/6 1127/11/6
f 1118/36/6 1119/11/6 1127/11/6 1128/11/6
f 1117/37/6 1118/36/6 1128/11/6 1129/11/6
f 1116/11/6 1117/37/6 1129/11/6 1130/11/6
f 1115/11/6 1116/11/6 1130/11/6 1131/11/6
f 1113/34/6 1115/11/6 1131/11/6 1132/11/6
f 1114/43/6 1113/34/6 1132/11/6 1123/11/6
f 1112/38/5 1111/11/5 1134/11/5 1133/11/5
f 1111/11/5 1110/11/5 1135/11/5 1134/11/5
f 1110/11/5 1109/34/5 1136/11/5 1135/11/5
f 1109/34/5 1108/39/5 1137/11/5 1136/11/5
f 1108/39/5 1107/11/5 1138/11/5 1137/11/5
f 1107/11/5 1106/34/5 1139/11/5 1138/11/5
f 1106/34/5 1105/41/5 1140/11/5 1139/11/5
f 1105/41/5 1104/33/5 1141/11/5 1140/11/5
f 1104/33/5 1103/11/5 1142/11/5 1141/11/5
f 1103/11/5 1112/38/5 1133/11/5 1142/11/5
f 1149/4/2 1144/4/2 1143/4/2 1151/4/2
f 1147/4/2 1150/4/2 1152/4/2 1148/4/2
f 1150/4/2 1149/4/2 1151/4/2 1152/4/2
f 1146/4/2 1147/4/2 1148/4/2 1145/4/2
f 1156/16/2 1154/4/2 1153/4/2 1155/4/2
f 889/16/250 888/4/250 1154/4/250 1156/16/250
f 878/4/4 837/4/4 1145/4/4 1148/4/4
f 864/4/3 863/4/3 1149/4/3 1150/4/3
f 877/4/3 864/4/3 1150/4/3 1147/4/3
f 887/4/251 906/4/251 1155/4/251 1153/4/251
f 836/4/5 835/4/5 1143/4/5 1144/4/5
f 888/4/5 887/4/5 1153/4/5 1154/4/5
f 835/4/4 865/4/4 1151/4/4 1143/4/4
f 866/4/4 878/4/4 1148/4/4 1152/4/4
f 1160/3/1 1159/3/1 1157/3/1 1158/3/1
f 120/3/4 117/3/4 1160/3/4 1158/3/4
f 119/3/252 120/3/252 1158/3/252 1157/3/252
f 117/3/253 118/3/253 1159/3/253 1160/3/253
