# Blender 5.2.0 LTS
# www.blender.org
o Asimov_Rocket_Launcher_Rocket
v 2.340351 0.050883 0.018980
v 2.356765 0.000368 0.018980
v 2.340351 -0.050146 0.018980
v 2.297381 -0.081366 0.018980
v 2.244267 -0.081366 0.018980
v 2.201297 -0.050146 0.018980
v 2.184883 0.000368 0.018980
v 2.201297 0.050883 0.018980
v 2.297381 0.082103 0.018980
v 2.244267 0.082103 0.018980
v 2.290750 0.111445 0.188498
v 2.370307 0.053644 0.188498
v 2.382622 0.015742 0.188499
v 2.352233 -0.077782 0.188499
v 2.319993 -0.101207 0.188499
v 2.221655 -0.101207 0.188499
v 2.189415 -0.077782 0.188499
v 2.159026 0.015742 0.188499
v 2.171341 0.053644 0.188498
v 2.250898 0.111445 0.188498
v 2.306082 0.108880 0.286435
v 2.363130 0.067432 0.286435
v 2.384920 0.000368 0.286435
v 2.363130 -0.066696 0.286435
v 2.306082 -0.108143 0.286435
v 2.235566 -0.108143 0.286435
v 2.178518 -0.066696 0.286435
v 2.156728 0.000368 0.286435
v 2.178518 0.067432 0.286435
v 2.235566 0.108880 0.286435
v 2.337888 0.206771 0.792839
v 2.446400 0.127933 0.792839
v 2.487849 0.000369 0.792839
v 2.446400 -0.127195 0.792839
v 2.337888 -0.206034 0.792839
v 2.203760 -0.206034 0.792839
v 2.095248 -0.127195 0.792839
v 2.053799 0.000369 0.792839
v 2.095248 0.127933 0.792839
v 2.203760 0.206771 0.792839
v 2.337888 0.206772 1.028107
v 2.446400 0.127933 1.028107
v 2.487849 0.000369 1.028107
v 2.446400 -0.127195 1.028107
v 2.337888 -0.206034 1.028107
v 2.203760 -0.206033 1.028107
v 2.095248 -0.127195 1.028107
v 2.053799 0.000369 1.028107
v 2.095248 0.127933 1.028107
v 2.203760 0.206772 1.028107
v 2.288881 0.055942 1.565397
v 2.318097 0.034715 1.565397
v 2.329257 0.000369 1.565397
v 2.318097 -0.033977 1.565397
v 2.288881 -0.055204 1.565397
v 2.252767 -0.055204 1.565397
v 2.223551 -0.033977 1.565397
v 2.212391 0.000369 1.565397
v 2.223551 0.034715 1.565397
v 2.252767 0.055942 1.565397
v 2.282657 0.036787 1.565397
v 2.301803 0.022876 1.565397
v 2.309116 0.000369 1.565397
v 2.301803 -0.022138 1.565397
v 2.282657 -0.036048 1.565397
v 2.258991 -0.036048 1.565397
v 2.239845 -0.022138 1.565397
v 2.232532 0.000369 1.565397
v 2.239845 0.022876 1.565397
v 2.258991 0.036787 1.565397
v 2.282657 0.036787 1.631798
v 2.301803 0.022877 1.631798
v 2.309116 0.000369 1.631798
v 2.301803 -0.022138 1.631798
v 2.282657 -0.036048 1.631798
v 2.258991 -0.036048 1.631798
v 2.239845 -0.022138 1.631798
v 2.232532 0.000369 1.631798
v 2.239845 0.022877 1.631798
v 2.258991 0.036787 1.631798
v 2.298780 0.136159 0.034919
v 2.391330 0.068918 0.034919
v 2.408607 0.015742 0.034919
v 2.373256 -0.093056 0.034919
v 2.328023 -0.125921 0.034919
v 2.213625 -0.125920 0.034919
v 2.168391 -0.093056 0.034919
v 2.133041 0.015742 0.034919
v 2.150318 0.068918 0.034919
v 2.242868 0.136159 0.034919
v 2.297381 0.082103 -1.324607
v 2.340351 0.050883 -1.324607
v 2.356765 0.000368 -1.324607
v 2.340351 -0.050146 -1.324607
v 2.297381 -0.081366 -1.324607
v 2.244267 -0.081366 -1.324607
v 2.201297 -0.050146 -1.324607
v 2.184883 0.000368 -1.324607
v 2.201297 0.050883 -1.324607
v 2.244267 0.082103 -1.324607
v 2.288866 0.055896 -1.397024
v 2.318058 0.034686 -1.397024
v 2.329209 0.000368 -1.397024
v 2.318058 -0.033949 -1.397024
v 2.288866 -0.055159 -1.397024
v 2.252782 -0.055159 -1.397024
v 2.223590 -0.033949 -1.397024
v 2.212439 0.000368 -1.397024
v 2.223590 0.034686 -1.397024
v 2.252782 0.055896 -1.397024
v 2.388516 0.085877 0.018980
v 2.416299 0.000368 0.018980
v 2.388516 -0.085140 0.018980
v 2.315778 -0.137987 0.018980
v 2.225870 -0.137987 0.018980
v 2.153132 -0.085140 0.018980
v 2.125349 0.000368 0.018980
v 2.153132 0.085877 0.018980
v 2.225870 0.138724 0.018980
v 2.315778 0.138724 0.018980
v 2.363130 0.067432 0.204437
v 2.384920 0.000368 0.204437
v 2.363130 -0.066696 0.204437
v 2.306082 -0.108143 0.204437
v 2.235566 -0.108143 0.204437
v 2.178518 -0.066696 0.204437
v 2.156728 0.000368 0.204437
v 2.178518 0.067432 0.204437
v 2.235566 0.108880 0.204437
v 2.306082 0.108880 0.204437
v 2.414876 0.076568 0.038903
v 2.432153 0.023393 0.038903
v 2.387809 -0.113086 0.038903
v 2.342575 -0.145950 0.038903
v 2.199073 -0.145950 0.038903
v 2.153839 -0.113086 0.038903
v 2.109494 0.023393 0.038903
v 2.126772 0.076568 0.038903
v 2.242868 0.160917 0.038903
v 2.298780 0.160917 0.038903
v 2.377203 0.053049 0.192482
v 2.387851 0.020277 0.192482
v 2.353799 -0.084525 0.192483
v 2.325921 -0.104779 0.192483
v 2.215727 -0.104779 0.192483
v 2.187849 -0.084525 0.192483
v 2.153797 0.020277 0.192482
v 2.164445 0.053049 0.192482
v 2.253595 0.117820 0.192483
v 2.288053 0.117820 0.192483
v 2.201297 -0.050146 -0.652813
v 2.244267 -0.081366 -0.652813
v 2.340351 -0.050146 -0.652813
v 2.356765 0.000368 -0.652813
v 2.297381 0.082103 -0.652813
v 2.244267 0.082103 -0.652813
v 2.184883 0.000368 -0.652813
v 2.297381 -0.081366 -0.652813
v 2.340351 0.050883 -0.652813
v 2.201297 0.050883 -0.652813
v 2.244267 -0.081366 -0.568544
v 2.356765 0.000368 -0.568544
v 2.244267 0.082103 -0.568544
v 2.201297 -0.050146 -0.568544
v 2.340351 -0.050146 -0.568544
v 2.297381 0.082103 -0.568544
v 2.184883 0.000368 -0.568544
v 2.297381 -0.081366 -0.568544
v 2.340351 0.050883 -0.568544
v 2.201297 0.050883 -0.568544
v 2.244267 -0.081366 -0.042865
v 2.356765 0.000368 -0.042865
v 2.244267 0.082103 -0.042865
v 2.201297 -0.050146 -0.042865
v 2.340351 -0.050146 -0.042865
v 2.297381 0.082103 -0.042865
v 2.184883 0.000368 -0.042865
v 2.297381 -0.081366 -0.042865
v 2.340351 0.050883 -0.042865
v 2.201297 0.050883 -0.042865
v 2.337888 0.206771 0.865550
v 2.446400 0.127933 0.865550
v 2.487849 0.000369 0.865550
v 2.446400 -0.127195 0.865550
v 2.337888 -0.206034 0.865550
v 2.203760 -0.206034 0.865550
v 2.095248 -0.127195 0.865550
v 2.053799 0.000369 0.865550
v 2.095248 0.127933 0.865550
v 2.203760 0.206771 0.865550
v 2.337888 0.206772 0.955397
v 2.446400 0.127933 0.955397
v 2.487849 0.000369 0.955397
v 2.446400 -0.127195 0.955397
v 2.337888 -0.206034 0.955397
v 2.203760 -0.206033 0.955397
v 2.095248 -0.127195 0.955397
v 2.053799 0.000369 0.955397
v 2.095248 0.127933 0.955397
v 2.203760 0.206772 0.955397
v 2.343146 0.222955 0.877357
v 2.460166 0.137935 0.877357
v 2.504864 0.000369 0.877357
v 2.460167 -0.137197 0.877357
v 2.343146 -0.222217 0.877357
v 2.198502 -0.222217 0.877357
v 2.081481 -0.137197 0.877357
v 2.036783 0.000369 0.877357
v 2.081481 0.137935 0.877357
v 2.198502 0.222955 0.877357
v 2.343146 0.222955 0.943589
v 2.460166 0.137935 0.943589
v 2.504864 0.000369 0.943590
v 2.460167 -0.137196 0.943590
v 2.343146 -0.222217 0.943590
v 2.198502 -0.222217 0.943590
v 2.081481 -0.137196 0.943590
v 2.036783 0.000369 0.943590
v 2.081481 0.137935 0.943589
v 2.198502 0.222955 0.943589
vn -0.5878 -0.8090 -0.0000
vn 0.9511 0.3090 -0.0000
vn -0.7656 -0.6389 0.0755
vn -0.5803 0.7987 0.1589
vn -0.0000 0.1589 -0.9873
vn 0.9390 -0.3051 0.1589
vn 0.3710 -0.9255 0.0755
vn -0.9390 -0.3051 0.1589
vn -0.3710 -0.9255 0.0755
vn 0.5803 0.7987 0.1589
vn -0.1511 0.0491 -0.9873
vn -0.0000 -0.9873 0.1589
vn -0.5771 -0.7943 -0.1898
vn -0.5878 0.8090 -0.0000
vn 0.9511 -0.3090 -0.0000
vn -0.0000 1.0000 -0.0000
vn -0.9511 -0.3090 -0.0000
vn 0.5878 -0.8090 -0.0000
vn 0.5878 0.8090 -0.0000
vn -0.9511 0.3090 -0.0000
vn -0.0000 -1.0000 -0.0000
vn 0.9338 -0.3034 -0.1898
vn -0.0000 0.9818 -0.1898
vn -0.9338 -0.3034 -0.1898
vn 0.5771 -0.7943 -0.1898
vn 0.5771 0.7943 -0.1898
vn -0.9338 0.3034 -0.1898
vn -0.0000 -0.9818 -0.1898
vn 0.9338 0.3034 -0.1898
vn -0.5771 0.7943 -0.1898
vn -0.0000 0.9628 0.2703
vn -0.0000 -0.0000 1.0000
vn -0.9157 -0.2975 0.2703
vn 0.5659 -0.7789 0.2703
vn 0.5659 0.7789 0.2703
vn -0.9157 0.2975 0.2703
vn -0.0000 -0.9628 0.2703
vn 0.9157 0.2975 0.2703
vn -0.5659 0.7789 0.2703
vn -0.5659 -0.7789 0.2703
vn 0.9157 -0.2975 0.2703
vn -0.0000 -0.0000 -1.0000
vn 0.8943 -0.2906 -0.3403
vn -0.0000 0.9403 -0.3403
vn -0.8943 -0.2906 -0.3403
vn 0.5527 -0.7607 -0.3403
vn 0.5527 0.7607 -0.3403
vn -0.8943 0.2906 -0.3403
vn -0.0000 -0.9403 -0.3403
vn 0.8943 0.2906 -0.3403
vn -0.5527 0.7607 -0.3403
vn -0.5527 -0.7607 -0.3403
vn 0.9390 0.3051 0.1589
vn 0.5803 -0.7987 0.1589
vn -0.5803 -0.7987 0.1589
vn -0.9390 0.3051 0.1589
vn -0.0000 0.9873 0.1589
vn 0.9157 0.2975 0.2702
vn -0.5659 -0.7789 0.2702
vn -0.0000 0.9628 0.2702
vn 0.5659 -0.7789 0.2702
vn -0.9157 0.2975 0.2702
vn 0.2439 0.9669 0.0755
vn -0.5041 -0.1638 0.8480
vn -0.9949 0.0669 0.0755
vn -0.3115 0.4288 0.8480
vn 0.7656 -0.6389 0.0755
vn 0.3115 0.4288 0.8480
vn 0.1511 0.0491 -0.9873
vn -0.8442 0.5307 0.0755
vn 0.5041 -0.1638 0.8480
vn 0.0934 -0.1285 -0.9873
vn 0.8442 0.5307 0.0755
vn -0.0000 -0.5300 0.8480
vn -0.0934 -0.1285 -0.9873
vn 0.9949 0.0669 0.0755
vn -0.2439 0.9669 0.0755
vn 0.5606 0.1821 -0.8078
vn -0.5606 -0.1821 0.8078
vn -0.0000 0.5894 -0.8078
vn 0.5606 -0.1821 -0.8078
vn -0.5606 0.1821 0.8078
vn 0.3464 0.4768 0.8078
vn 0.3464 -0.4768 -0.8078
vn -0.3464 0.4768 0.8078
vn 0.5606 0.1821 0.8078
vn -0.0000 -0.5894 -0.8078
vn -0.0000 0.5894 0.8078
vn 0.5606 -0.1821 0.8078
vn -0.3464 -0.4768 -0.8078
vn 0.3464 -0.4768 0.8078
vn -0.5606 -0.1821 -0.8078
vn -0.0000 -0.5894 0.8078
vn -0.5606 0.1821 -0.8078
vn 0.3464 0.4768 -0.8078
vn -0.3464 -0.4768 0.8078
vn -0.3464 0.4768 -0.8078
vt 0.408490 0.964627
vt 0.408490 0.964627
vt 0.590588 0.285451
vt 0.590588 0.285451
vt 0.590588 0.285451
vt 0.590588 0.285451
vt 0.777608 0.969548
vt 0.590588 0.285451
vt 0.408490 0.964627
vt 0.590588 0.285451
vt 0.782529 0.959705
vt 0.782529 0.959705
vt 0.408490 0.964627
vt 0.782529 0.964627
vt 0.782529 0.964627
vt 0.782529 0.964627
s 1
f 152/1/1 151/2/1 97/2/1 96/1/1
f 122/3/2 121/3/2 22/3/2 23/3/2
f 15/3/3 85/4/3 134/4/3 144/3/3
f 119/3/4 118/3/4 128/3/4 129/3/4
f 81/3/5 90/3/5 139/3/5 140/3/5
f 113/3/6 112/3/6 122/3/6 123/3/6
f 13/3/7 83/5/7 132/5/7 142/3/7
f 117/3/8 116/3/8 126/3/8 127/3/8
f 88/6/9 18/3/9 147/3/9 137/6/9
f 111/3/10 120/3/10 130/3/10 121/3/10
f 89/6/11 88/6/11 137/6/11 138/6/11
f 115/3/12 114/3/12 124/3/12 125/3/12
f 27/3/13 26/3/13 36/3/13 37/3/13
f 129/3/14 128/3/14 29/3/14 30/3/14
f 126/3/1 125/3/1 26/3/1 27/3/1
f 123/3/15 122/3/15 23/3/15 24/3/15
f 130/3/16 129/3/16 30/3/16 21/3/16
f 127/3/17 126/3/17 27/3/17 28/3/17
f 124/3/18 123/3/18 24/3/18 25/3/18
f 121/3/19 130/3/19 21/3/19 22/3/19
f 128/3/20 127/3/20 28/3/20 29/3/20
f 125/3/21 124/3/21 25/3/21 26/3/21
f 34/3/15 33/3/15 43/3/15 44/3/15
f 24/3/22 23/3/22 33/3/22 34/3/22
f 21/3/23 30/3/23 40/3/23 31/3/23
f 28/3/24 27/3/24 37/3/24 38/3/24
f 25/3/25 24/3/25 34/3/25 35/3/25
f 22/3/26 21/3/26 31/3/26 32/3/26
f 29/3/27 28/3/27 38/3/27 39/3/27
f 26/3/28 25/3/28 35/3/28 36/3/28
f 23/3/29 22/3/29 32/3/29 33/3/29
f 30/3/30 29/3/30 39/3/30 40/3/30
f 41/3/31 50/3/31 60/3/31 51/3/31
f 31/3/16 40/3/16 50/3/16 41/3/16
f 38/3/17 37/3/17 47/3/17 48/3/17
f 35/3/18 34/3/18 44/3/18 45/3/18
f 32/3/19 31/3/19 41/3/19 42/3/19
f 39/3/20 38/3/20 48/3/20 49/3/20
f 36/3/21 35/3/21 45/3/21 46/3/21
f 33/3/2 32/3/2 42/3/2 43/3/2
f 40/3/14 39/3/14 49/3/14 50/3/14
f 37/3/1 36/3/1 46/3/1 47/3/1
f 51/3/32 60/3/32 59/3/32 58/3/32 57/3/32 56/3/32 55/3/32 54/3/32 53/3/32 52/3/32
f 48/3/33 47/3/33 57/3/33 58/3/33
f 45/3/34 44/3/34 54/3/34 55/3/34
f 42/3/35 41/3/35 51/3/35 52/3/35
f 49/3/36 48/3/36 58/3/36 59/3/36
f 46/3/37 45/3/37 55/3/37 56/3/37
f 43/3/38 42/3/38 52/3/38 53/3/38
f 50/3/39 49/3/39 59/3/39 60/3/39
f 47/3/40 46/3/40 56/3/40 57/3/40
f 44/3/41 43/3/41 53/3/41 54/3/41
f 61/7/42 62/7/42 63/7/42 64/7/42 65/7/42 66/7/42 67/7/42 68/7/42 69/7/42 70/7/42
f 71/7/32 80/7/32 79/7/32 78/7/32 77/7/32 76/7/32 75/7/32 74/7/32 73/7/32 72/7/32
f 65/7/18 64/7/18 74/7/18 75/7/18
f 62/7/19 61/7/19 71/7/19 72/7/19
f 69/7/20 68/7/20 78/7/20 79/7/20
f 66/7/21 65/7/21 75/7/21 76/7/21
f 63/7/2 62/7/2 72/7/2 73/7/2
f 70/7/14 69/7/14 79/7/14 80/7/14
f 67/7/1 66/7/1 76/7/1 77/7/1
f 64/7/15 63/7/15 73/7/15 74/7/15
f 61/7/16 70/7/16 80/7/16 71/7/16
f 68/7/17 67/7/17 77/7/17 78/7/17
f 1/8/42 9/3/42 120/3/42 111/3/42
f 2/3/42 1/8/42 111/3/42 112/3/42
f 3/4/42 2/3/42 112/3/42 113/3/42
f 4/8/42 3/4/42 113/3/42 114/3/42
f 5/6/42 4/8/42 114/3/42 115/3/42
f 6/3/42 5/6/42 115/3/42 116/3/42
f 7/8/42 6/3/42 116/3/42 117/3/42
f 8/3/42 7/8/42 117/3/42 118/3/42
f 10/5/42 8/3/42 118/3/42 119/3/42
f 9/3/42 10/5/42 119/3/42 120/3/42
f 93/2/43 94/2/43 104/2/43 103/2/43
f 154/2/15 153/2/15 94/2/15 93/2/15
f 156/2/16 155/2/16 91/2/16 100/2/16
f 151/2/17 157/9/17 98/9/17 97/2/17
f 153/2/18 158/9/18 95/9/18 94/2/18
f 155/2/19 159/9/19 92/9/19 91/2/19
f 157/9/20 160/2/20 99/2/20 98/9/20
f 158/9/21 152/1/21 96/1/21 95/9/21
f 159/9/2 154/2/2 93/2/2 92/9/2
f 160/2/14 156/2/14 100/2/14 99/2/14
f 101/2/42 102/9/42 103/2/42 104/2/42 105/9/42 106/1/42 107/2/42 108/9/42 109/2/42 110/2/42
f 100/2/44 91/2/44 101/2/44 110/2/44
f 97/2/45 98/9/45 108/9/45 107/2/45
f 94/2/46 95/9/46 105/9/46 104/2/46
f 91/2/47 92/9/47 102/9/47 101/2/47
f 98/9/48 99/2/48 109/2/48 108/9/48
f 95/9/49 96/1/49 106/1/49 105/9/49
f 92/9/50 93/2/50 103/2/50 102/9/50
f 99/2/51 100/2/51 110/2/51 109/2/51
f 96/1/52 97/2/52 107/2/52 106/1/52
f 82/3/53 83/5/53 112/3/53 111/3/53
f 84/3/54 85/4/54 114/3/54 113/3/54
f 86/6/55 87/10/55 116/3/55 115/3/55
f 88/6/56 89/6/56 118/3/56 117/3/56
f 90/3/57 81/3/57 120/3/57 119/3/57
f 13/3/53 12/3/53 121/3/53 122/3/53
f 15/3/54 14/3/54 123/3/54 124/3/54
f 17/3/55 16/3/55 125/3/55 126/3/55
f 19/3/56 18/3/56 127/3/56 128/3/56
f 11/3/57 20/3/57 129/3/57 130/3/57
f 12/3/53 82/3/53 111/3/53 121/3/53
f 83/5/53 13/3/53 122/3/53 112/3/53
f 89/6/56 19/3/56 128/3/56 118/3/56
f 20/3/57 90/3/57 119/3/57 129/3/57
f 16/3/55 86/6/55 115/3/55 125/3/55
f 87/10/55 17/3/55 126/3/55 116/3/55
f 14/3/54 84/3/54 113/3/54 123/3/54
f 81/3/57 11/3/57 130/3/57 120/3/57
f 18/3/56 88/6/56 117/3/56 127/3/56
f 85/4/54 15/3/54 124/3/54 114/3/54
f 132/5/58 131/3/58 141/3/58 142/3/58
f 136/10/59 135/6/59 145/3/59 146/3/59
f 140/3/60 139/3/60 149/3/60 150/3/60
f 134/4/61 133/3/61 143/3/61 144/3/61
f 138/6/62 137/6/62 147/3/62 148/3/62
f 19/3/63 89/6/63 138/6/63 148/3/63
f 12/3/64 13/3/64 142/3/64 141/3/64
f 90/3/65 20/3/65 149/3/65 139/3/65
f 14/3/66 15/3/66 144/3/66 143/3/66
f 86/6/67 16/3/67 145/3/67 135/6/67
f 16/3/68 17/3/68 146/3/68 145/3/68
f 83/5/69 82/3/69 131/3/69 132/5/69
f 17/3/70 87/10/70 136/10/70 146/3/70
f 18/3/71 19/3/71 148/3/71 147/3/71
f 85/4/72 84/3/72 133/3/72 134/4/72
f 84/3/73 14/3/73 143/3/73 133/3/73
f 20/3/74 11/3/74 150/3/74 149/3/74
f 87/10/75 86/6/75 135/6/75 136/10/75
f 11/3/76 81/3/76 140/3/76 150/3/76
f 82/3/77 12/3/77 141/3/77 131/3/77
f 170/11/14 163/11/14 156/11/14 160/11/14
f 169/11/2 162/11/2 154/11/2 159/11/2
f 168/11/21 161/12/21 152/12/21 158/11/21
f 167/11/20 170/11/20 160/11/20 157/11/20
f 166/11/19 169/11/19 159/11/19 155/11/19
f 165/11/18 168/11/18 158/11/18 153/11/18
f 164/11/17 167/11/17 157/11/17 151/11/17
f 163/11/16 166/11/16 155/11/16 156/11/16
f 162/11/15 165/11/15 153/11/15 154/11/15
f 161/12/1 164/11/1 151/11/1 152/12/1
f 171/1/1 174/2/1 164/2/1 161/1/1
f 172/2/15 175/13/15 165/2/15 162/2/15
f 173/2/16 176/2/16 166/2/16 163/2/16
f 174/2/17 177/9/17 167/9/17 164/2/17
f 175/13/18 178/9/18 168/9/18 165/2/18
f 176/2/19 179/9/19 169/9/19 166/2/19
f 177/9/20 180/2/20 170/2/20 167/9/20
f 178/9/21 171/1/21 161/1/21 168/9/21
f 179/9/2 172/2/2 162/2/2 169/9/2
f 180/2/14 173/2/14 163/2/14 170/2/14
f 8/14/14 10/14/14 173/14/14 180/14/14
f 1/14/2 2/14/2 172/14/2 179/14/2
f 4/14/21 5/15/21 171/15/21 178/14/21
f 7/14/20 8/14/20 180/14/20 177/14/20
f 9/14/19 1/14/19 179/14/19 176/14/19
f 3/14/18 4/14/18 178/14/18 175/16/18
f 6/14/17 7/14/17 177/14/17 174/14/17
f 10/14/16 9/14/16 176/14/16 173/14/16
f 2/14/15 3/14/15 175/16/15 172/14/15
f 5/15/1 6/14/1 174/14/1 171/15/1
f 184/3/20 194/3/20 193/3/20 183/3/20
f 181/3/21 191/3/21 200/3/21 190/3/21
f 188/3/2 198/3/2 197/3/2 187/3/2
f 185/3/14 195/3/14 194/3/14 184/3/14
f 182/3/1 192/3/1 191/3/1 181/3/1
f 189/3/15 199/3/15 198/3/15 188/3/15
f 186/3/16 196/3/16 195/3/16 185/3/16
f 183/3/17 193/3/17 192/3/17 182/3/17
f 190/3/18 200/3/18 199/3/18 189/3/18
f 187/3/19 197/3/19 196/3/19 186/3/19
f 204/3/15 203/3/15 213/3/15 214/3/15
f 201/3/16 210/3/16 220/3/16 211/3/16
f 208/3/17 207/3/17 217/3/17 218/3/17
f 205/3/18 204/3/18 214/3/18 215/3/18
f 202/3/19 201/3/19 211/3/19 212/3/19
f 209/3/20 208/3/20 218/3/20 219/3/20
f 206/3/21 205/3/21 215/3/21 216/3/21
f 203/3/2 202/3/2 212/3/2 213/3/2
f 210/3/14 209/3/14 219/3/14 220/3/14
f 207/3/1 206/3/1 216/3/1 217/3/1
f 183/3/78 182/3/78 202/3/78 203/3/78
f 197/3/79 198/3/79 218/3/79 217/3/79
f 181/3/80 190/3/80 210/3/80 201/3/80
f 184/3/81 183/3/81 203/3/81 204/3/81
f 198/3/82 199/3/82 219/3/82 218/3/82
f 191/3/83 192/3/83 212/3/83 211/3/83
f 185/3/84 184/3/84 204/3/84 205/3/84
f 199/3/85 200/3/85 220/3/85 219/3/85
f 192/3/86 193/3/86 213/3/86 212/3/86
f 186/3/87 185/3/87 205/3/87 206/3/87
f 200/3/88 191/3/88 211/3/88 220/3/88
f 193/3/89 194/3/89 214/3/89 213/3/89
f 187/3/90 186/3/90 206/3/90 207/3/90
f 194/3/91 195/3/91 215/3/91 214/3/91
f 188/3/92 187/3/92 207/3/92 208/3/92
f 195/3/93 196/3/93 216/3/93 215/3/93
f 189/3/94 188/3/94 208/3/94 209/3/94
f 182/3/95 181/3/95 201/3/95 202/3/95
f 196/3/96 197/3/96 217/3/96 216/3/96
f 190/3/97 189/3/97 209/3/97 210/3/97
